<svg width="2162" height="1085" xmlns="http://www.w3.org/2000/svg" xmlns:xlink="http://www.w3.org/1999/xlink" overflow="hidden"><g transform="translate(-2338 1320)"><defs><path d="M783 20C401 20 122-272 122-744 122-1217 401-1510 783-1510 1085-1510 1331-1328 1384-1021L1194-1021C1152-1225 977-1334 783-1334 515-1334 307-1126 307-744 307-363 516-156 783-156 978-156 1152-266 1194-469L1384-469C1332-166 1088 20 783 20" id="p" fill="#FFFFFF"/><path d="M338-1490 338 0 158 0 158-1490 338-1490" id="q" fill="#FFFFFF"/><path d="M158 0 158-1118 338-1118 338 0 158 0ZM249-1301C181-1301 124-1354 124-1420 124-1486 181-1539 249-1539 318-1539 375-1486 375-1420 375-1354 318-1301 249-1301" id="r" fill="#FFFFFF"/><path d="M628 24C304 24 104-206 104-550 104-893 302-1132 607-1132 844-1132 1094-986 1094-573L1094-498 286-498C295-264 431-136 629-136 761-136 860-194 902-308L1076-260C1024-91 857 24 628 24ZM287-650 911-650C894-840 791-972 607-972 415-972 298-821 287-650" id="s" fill="#FFFFFF"/><path d="M338-670 338 0 158 0 158-1118 331-1118 332-911C404-1069 524-1132 674-1132 900-1132 1052-993 1052-710L1052 0 872 0 872-695C872-867 776-970 620-970 459-970 338-861 338-670" id="t" fill="#FFFFFF"/><path d="M598-1118 598-964 368-964 368-290C368-190 405-146 500-146 523-146 562-152 592-158L629-6C592 7 541 14 495 14 302 14 188-93 188-276L188-964 20-964 20-1118 188-1118 188-1384 368-1384 368-1118 598-1118" id="u" fill="#FFFFFF"/><g id="a"><use width="100%" height="100%" xlink:href="#p" transform="scale(0.015191 0.015191)"></use><use width="100%" height="100%" xlink:href="#q" transform="matrix(0.015191 0 0 0.015191 22.7257 0)"></use><use width="100%" height="100%" xlink:href="#r" transform="matrix(0.015191 0 0 0.015191 30.2604 0)"></use><use width="100%" height="100%" xlink:href="#s" transform="matrix(0.015191 0 0 0.015191 37.7951 0)"></use><use width="100%" height="100%" xlink:href="#t" transform="matrix(0.015191 0 0 0.015191 55.9332 0)"></use><use width="100%" height="100%" xlink:href="#u" transform="matrix(0.015191 0 0 0.015191 74.3142 0)"></use></g><path d="M52 0 593-1490 813-1490 1361 0 1161 0 1012-416 398-416 254 0 52 0ZM456-582 953-582C850-872 808-972 702-1338 594-961 557-878 456-582" id="v" fill="#FFFFFF"/><path d="M458 0 52-1490 246-1490C354-1051 479-635 570-177 662-636 791-1050 901-1490L1117-1490C1227-1052 1351-636 1447-183 1539-638 1663-1052 1770-1490L1966-1490 1558 0 1337 0 1081-944C1055-1039 1031-1144 1008-1275 986-1153 964-1052 935-944L680 0 458 0" id="w" fill="#FFFFFF"/><path d="M657 26C334 26 133-140 116-390L311-390C326-221 482-144 657-144 859-144 1013-250 1013-409 1018-612 719-647 538-702 299-775 158-893 158-1091 158-1343 382-1510 670-1510 964-1510 1169-1339 1178-1114L992-1114C975-1259 841-1342 664-1342 471-1342 343-1240 343-1100 343-944 518-889 627-859L776-818C936-774 1198-684 1198-406 1198-162 1001 26 657 26" id="x" fill="#FFFFFF"/><g id="b"><use width="100%" height="100%" xlink:href="#v" transform="scale(0.0195312 0.0195312)"></use><use width="100%" height="100%" xlink:href="#w" transform="matrix(0.0195312 0 0 0.0195312 25.332 0)"></use><use width="100%" height="100%" xlink:href="#x" transform="matrix(0.0195312 0 0 0.0195312 64.7461 0)"></use></g><path d="M180 0 180-1490 1088-1490 1088-1322 370-1322 370-836 1039-836 1039-668 370-668 370-168 1097-168 1097 0 180 0" id="y" fill="#FFFFFF"/><path d="M154 0 154-137 649-674C814-853 898-955 898-1092 898-1248 777-1345 618-1345 448-1345 340-1235 340-1067L158-1067C158-1331 358-1510 623-1510 889-1510 1078-1327 1078-1094 1078-933 1005-806 742-526L416-179 416-167 1103-167 1103 0 154 0" id="z" fill="#FFFFFF"/><g id="c"><use width="100%" height="100%" xlink:href="#y" transform="scale(0.0195312 0.0195312)"></use><use width="100%" height="100%" xlink:href="#p" transform="matrix(0.0195312 0 0 0.0195312 24.043 0)"></use><use width="100%" height="100%" xlink:href="#z" transform="matrix(0.0195312 0 0 0.0195312 53.2617 0)"></use></g><path d="M645 0 180 0 180-1490 664-1490C1099-1490 1356-1210 1356-748 1356-282 1099 0 645 0ZM370-168 633-168C996-168 1172-386 1172-748 1172-1106 996-1322 651-1322L370-1322 370-168" id="A" fill="#FFFFFF"/><path d="M613 24C309 24 104-207 104-552 104-902 309-1132 613-1132 918-1132 1124-902 1124-552 1124-207 918 24 613 24ZM613-137C839-137 942-332 942-552 942-774 839-971 613-971 390-971 287-775 287-552 287-332 390-137 613-137" id="B" fill="#FFFFFF"/><path d="M613 24C309 24 104-207 104-552 104-902 309-1132 613-1132 829-1132 1005-1018 1066-823L893-774C860-889 760-971 613-971 390-971 287-775 287-552 287-332 390-137 613-137 763-137 865-222 898-343L1070-294C1010-95 832 24 613 24" id="C" fill="#FFFFFF"/><path d="M158 0 158-1490 338-1490 338-625 360-625 838-1118 1061-1118 593-638 1096 0 865 0 456-523 338-412 338 0 158 0" id="D" fill="#FFFFFF"/><path d="M158 0 158-1118 332-1118 332-946 344-946C385-1059 501-1134 634-1134 660-1134 704-1132 725-1131L725-950C714-952 665-960 617-960 456-960 338-851 338-700L338 0 158 0" id="E" fill="#FFFFFF"/><g id="d"><use width="100%" height="100%" xlink:href="#A" transform="scale(0.0195312 0.0195312)"></use><use width="100%" height="100%" xlink:href="#B" transform="matrix(0.0195312 0 0 0.0195312 28.8672 0)"></use><use width="100%" height="100%" xlink:href="#C" transform="matrix(0.0195312 0 0 0.0195312 52.8516 0)"></use><use width="100%" height="100%" xlink:href="#D" transform="matrix(0.0195312 0 0 0.0195312 75.7031 0)"></use><use width="100%" height="100%" xlink:href="#s" transform="matrix(0.0195312 0 0 0.0195312 96.7578 0)"></use><use width="100%" height="100%" xlink:href="#E" transform="matrix(0.0195312 0 0 0.0195312 120.078 0)"></use></g><path d="M158 0 158-1118 333-1118 334-913C389-1064 515-1138 647-1138 794-1138 892-1048 932-910 985-1051 1122-1138 1284-1138 1478-1138 1636-1013 1636-754L1636 0 1455 0 1455-749C1455-910 1350-974 1230-974 1079-974 987-871 987-730L987 0 807 0 807-767C807-891 714-974 588-974 457-974 338-882 338-704L338 0 158 0" id="F" fill="#FFFFFF"/><path d="M158 418 158-1118 332-1118 332-939 352-939C389-998 458-1132 676-1132 955-1132 1150-910 1150-556 1150-200 956 24 677 24 464 24 389-111 352-173L338-173 338 418 158 418ZM650-137C859-137 967-323 967-558 967-790 862-971 650-971 444-971 336-805 336-558 336-309 447-137 650-137" id="G" fill="#FFFFFF"/><path d="M538 24C308 24 148-78 108-271L279-312C311-189 402-134 536-134 692-134 792-211 792-303 792-380 738-431 628-457L442-501C239-549 142-649 142-806 142-998 318-1132 556-1132 786-1132 907-1020 958-863L795-821C764-901 701-979 557-979 424-979 324-910 324-817 324-734 381-688 512-657L681-617C884-569 979-468 979-315 979-119 800 24 538 24" id="H" fill="#FFFFFF"/><g id="e"><use width="100%" height="100%" xlink:href="#C" transform="scale(0.0195312 0.0195312)"></use><use width="100%" height="100%" xlink:href="#B" transform="matrix(0.0195312 0 0 0.0195312 22.8516 0)"></use><use width="100%" height="100%" xlink:href="#F" transform="matrix(0.0195312 0 0 0.0195312 46.8359 0)"></use><use width="100%" height="100%" xlink:href="#G" transform="matrix(0.0195312 0 0 0.0195312 81.875 0)"></use><use width="100%" height="100%" xlink:href="#B" transform="matrix(0.0195312 0 0 0.0195312 106.367 0)"></use><use width="100%" height="100%" xlink:href="#H" transform="matrix(0.0195312 0 0 0.0195312 130.352 0)"></use><use width="100%" height="100%" xlink:href="#s" transform="matrix(0.0195312 0 0 0.0195312 151.465 0)"></use></g><path d="M180 0 180-1490 708-1490C1019-1490 1166-1313 1166-1095 1166-904 1052-817 922-782L922-768C1061-759 1224-631 1224-397 1224-172 1076 0 725 0L180 0ZM370-168 720-168C952-168 1041-270 1041-399 1041-548 921-676 730-676L370-676 370-168ZM370-836 698-836C858-836 984-937 984-1091 984-1220 897-1322 704-1322L370-1322 370-836" id="I" fill="#FFFFFF"/><path d="M471 26C259 26 90-98 90-318 90-574 318-621 525-647 727-674 812-663 812-755 812-894 733-974 578-974 417-974 330-888 295-810L122-867C208-1070 400-1132 573-1132 723-1132 992-1086 992-737L992 0 815 0 815-152 803-152C765-73 660 26 471 26ZM502-133C701-133 812-267 812-404L812-559C782-524 586-504 517-495 386-478 271-436 271-309 271-193 368-133 502-133" id="J" fill="#FFFFFF"/><path d="M577 24C298 24 104-200 104-556 104-910 299-1132 578-1132 796-1132 865-998 902-939L916-939 916-1490 1096-1490 1096 0 922 0 922-173 902-173C865-111 790 24 577 24ZM604-137C807-137 918-309 918-558 918-805 810-971 604-971 392-971 287-790 287-558 287-323 395-137 604-137" id="K" fill="#FFFFFF"/><g id="f"><use width="100%" height="100%" xlink:href="#I" transform="scale(0.015191 0.015191)"></use><use width="100%" height="100%" xlink:href="#J" transform="matrix(0.015191 0 0 0.015191 20.3559 0)"></use><use width="100%" height="100%" xlink:href="#C" transform="matrix(0.015191 0 0 0.015191 37.8255 0)"></use><use width="100%" height="100%" xlink:href="#D" transform="matrix(0.015191 0 0 0.015191 55.599 0)"></use><use width="100%" height="100%" xlink:href="#s" transform="matrix(0.015191 0 0 0.015191 71.9748 0)"></use><use width="100%" height="100%" xlink:href="#t" transform="matrix(0.015191 0 0 0.015191 90.1128 0)"></use><use width="100%" height="100%" xlink:href="#K" transform="matrix(0.015191 0 0 0.015191 108.494 0)"></use></g><path d="M180 0 180-1490 404-1490 1010-537C1050-474 1118-360 1186-225 1159-662 1179-1046 1173-1490L1363-1490 1363 0 1137 0C860-448 622-778 356-1262 383-786 367-470 371 0L180 0" id="L" fill="#FFFFFF"/><path d="M611 442C363 442 220 337 151 214L297 120C344 185 414 285 611 285 789 285 918 203 918 19L918-205 901-205C863-141 792-18 576-18 308-18 104-213 104-564 104-910 301-1132 580-1132 796-1132 868-999 906-939L923-939 923-1118 1098-1118 1098 29C1098 318 883 442 611 442ZM606-178C809-178 920-324 920-568 920-805 812-971 606-971 393-971 287-791 287-568 287-338 396-178 606-178" id="M" fill="#FFFFFF"/><path d="M65 0 458-574 88-1118 298-1118C386-982 490-821 565-683 632-825 741-985 829-1118L1035-1118 661-564 1053 0 844 0C750-144 638-310 557-458 484-308 366-142 273 0L65 0" id="N" fill="#FFFFFF"/><g id="g"><use width="100%" height="100%" xlink:href="#L" transform="scale(0.015191 0.015191)"></use><use width="100%" height="100%" xlink:href="#M" transform="matrix(0.015191 0 0 0.015191 23.4397 0)"></use><use width="100%" height="100%" xlink:href="#r" transform="matrix(0.015191 0 0 0.015191 42.5195 0)"></use><use width="100%" height="100%" xlink:href="#t" transform="matrix(0.015191 0 0 0.015191 50.0543 0)"></use><use width="100%" height="100%" xlink:href="#N" transform="matrix(0.015191 0 0 0.015191 68.4353 0)"></use></g><path d="M677 24C464 24 389-111 352-173L332-173 332 0 158 0 158-1490 338-1490 338-939 352-939C389-998 458-1132 676-1132 955-1132 1150-910 1150-556 1150-200 956 24 677 24ZM650-137C859-137 967-323 967-558 967-790 862-971 650-971 444-971 336-805 336-558 336-309 447-137 650-137" id="O" fill="#FFFFFF"/><g id="h"><use width="100%" height="100%" xlink:href="#A" transform="scale(0.015191 0.015191)"></use><use width="100%" height="100%" xlink:href="#J" transform="matrix(0.015191 0 0 0.015191 22.4523 0)"></use><use width="100%" height="100%" xlink:href="#u" transform="matrix(0.015191 0 0 0.015191 39.9219 0)"></use><use width="100%" height="100%" xlink:href="#J" transform="matrix(0.015191 0 0 0.015191 50.2517 0)"></use><use width="100%" height="100%" xlink:href="#O" transform="matrix(0.015191 0 0 0.015191 67.7214 0)"></use><use width="100%" height="100%" xlink:href="#J" transform="matrix(0.015191 0 0 0.015191 87.0747 0)"></use><use width="100%" height="100%" xlink:href="#H" transform="matrix(0.015191 0 0 0.015191 104.544 0)"></use><use width="100%" height="100%" xlink:href="#s" transform="matrix(0.015191 0 0 0.015191 120.966 0)"></use></g><path d="M180 0 180-1490 1081-1490 1081-1322 370-1322 370-812 1013-812 1013-644 370-644 370 0 180 0" id="P" fill="#FFFFFF"/><g id="i"><use width="100%" height="100%" xlink:href="#P" transform="scale(0.015191 0.015191)"></use><use width="100%" height="100%" xlink:href="#E" transform="matrix(0.015191 0 0 0.015191 17.4544 0)"></use><use width="100%" height="100%" xlink:href="#B" transform="matrix(0.015191 0 0 0.015191 28.6502 0)"></use><use width="100%" height="100%" xlink:href="#t" transform="matrix(0.015191 0 0 0.015191 47.3047 0)"></use><use width="100%" height="100%" xlink:href="#u" transform="matrix(0.015191 0 0 0.015191 65.6858 0)"></use><use width="100%" height="100%" xlink:href="#s" transform="matrix(0.015191 0 0 0.015191 75.5599 0)"></use><use width="100%" height="100%" xlink:href="#t" transform="matrix(0.015191 0 0 0.015191 93.6979 0)"></use><use width="100%" height="100%" xlink:href="#K" transform="matrix(0.015191 0 0 0.015191 112.079 0)"></use></g><path d="M635 20C343 20 135-140 125-376L317-376C328-234 462-147 632-147 819-147 955-252 955-407 955-568 830-681 609-681L488-681 488-846 609-846C783-846 903-946 903-1100 903-1248 799-1345 637-1345 485-1345 346-1260 340-1115L157-1115C165-1349 379-1510 641-1510 919-1510 1089-1322 1089-1110 1089-942 994-819 842-774L842-762C1032-731 1143-593 1143-405 1143-161 927 20 635 20" id="Q" fill="#FFFFFF"/><g id="j"><use width="100%" height="100%" xlink:href="#x" transform="scale(0.015191 0.015191)"></use><use width="100%" height="100%" xlink:href="#Q" transform="matrix(0.015191 0 0 0.015191 19.9609 0)"></use></g><g id="k"><use width="100%" height="100%" xlink:href="#A" transform="scale(0.015191 0.015191)"></use><use width="100%" height="100%" xlink:href="#B" transform="matrix(0.015191 0 0 0.015191 22.4523 0)"></use><use width="100%" height="100%" xlink:href="#C" transform="matrix(0.015191 0 0 0.015191 41.1068 0)"></use><use width="100%" height="100%" xlink:href="#H" transform="matrix(0.015191 0 0 0.015191 58.8802 0)"></use></g><g id="l"><use width="100%" height="100%" xlink:href="#y" transform="scale(0.015191 0.015191)"></use><use width="100%" height="100%" xlink:href="#F" transform="matrix(0.015191 0 0 0.015191 18.7001 0)"></use><use width="100%" height="100%" xlink:href="#J" transform="matrix(0.015191 0 0 0.015191 45.9527 0)"></use><use width="100%" height="100%" xlink:href="#r" transform="matrix(0.015191 0 0 0.015191 63.4223 0)"></use><use width="100%" height="100%" xlink:href="#q" transform="matrix(0.015191 0 0 0.015191 70.957 0)"></use></g><g id="m"><use width="100%" height="100%" xlink:href="#O" transform="scale(0.015191 0.015191)"></use><use width="100%" height="100%" xlink:href="#E" transform="matrix(0.015191 0 0 0.015191 19.0495 0)"></use><use width="100%" height="100%" xlink:href="#r" transform="matrix(0.015191 0 0 0.015191 31.2478 0)"></use><use width="100%" height="100%" xlink:href="#M" transform="matrix(0.015191 0 0 0.015191 38.7826 0)"></use><use width="100%" height="100%" xlink:href="#s" transform="matrix(0.015191 0 0 0.015191 57.8624 0)"></use></g><path d="M789 20C391 20 122-273 122-744 122-1217 395-1510 777-1510 1092-1510 1335-1312 1389-1023L1193-1023C1132-1214 989-1334 778-1334 516-1334 307-1127 307-744 307-364 515-156 789-156 1038-156 1209-321 1214-583L828-583 828-749 1400-749 1400-586C1400-216 1144 20 789 20" id="R" fill="#FFFFFF"/><g id="n"><use width="100%" height="100%" xlink:href="#R" transform="scale(0.015191 0.015191)"></use><use width="100%" height="100%" xlink:href="#B" transform="matrix(0.015191 0 0 0.015191 23.2118 0)"></use><use width="100%" height="100%" xlink:href="#B" transform="matrix(0.015191 0 0 0.015191 41.8663 0)"></use><use width="100%" height="100%" xlink:href="#M" transform="matrix(0.015191 0 0 0.015191 60.5208 0)"></use><use width="100%" height="100%" xlink:href="#q" transform="matrix(0.015191 0 0 0.015191 79.6007 0)"></use><use width="100%" height="100%" xlink:href="#s" transform="matrix(0.015191 0 0 0.015191 87.1354 0)"></use></g><path d="M180 0 180-1490 690-1490C1038-1490 1198-1281 1198-1016 1198-750 1038-539 691-539L370-539 370 0 180 0ZM370-706 682-706C918-706 1009-839 1009-1016 1009-1192 918-1323 680-1323L370-1323 370-706" id="S" fill="#FFFFFF"/><g id="o"><use width="100%" height="100%" xlink:href="#S" transform="scale(0.015191 0.015191)"></use><use width="100%" height="100%" xlink:href="#E" transform="matrix(0.015191 0 0 0.015191 19.8698 0)"></use><use width="100%" height="100%" xlink:href="#B" transform="matrix(0.015191 0 0 0.015191 31.0655 0)"></use><use width="100%" height="100%" xlink:href="#u" transform="matrix(0.015191 0 0 0.015191 49.7201 0)"></use><use width="100%" height="100%" xlink:href="#B" transform="matrix(0.015191 0 0 0.015191 59.5942 0)"></use><use width="100%" height="100%" xlink:href="#t" transform="matrix(0.015191 0 0 0.015191 78.2487 0)"></use></g></defs><path d="M2500-780C2500-735.82 2464.18-700 2420-700 2375.82-700 2340-735.82 2340-780 2340-824.18 2375.82-860 2420-860 2464.18-860 2500-824.18 2500-780Z" stroke="#FFFFFF" stroke-width="4" fill-opacity="0"/><use width="100%" height="100%" xlink:href="#a" transform="translate(2377.75 -768.611)"></use><path d="M2740-1134C2740-1137.31 2742.69-1140 2746-1140L3674-1140C3677.31-1140 3680-1137.31 3680-1134L3680-286C3680-282.686 3677.31-280 3674-280L2746-280C2742.69-280 2740-282.686 2740-286Z" stroke="#635DFF" stroke-width="10" fill-opacity="0"/><path d="M2720-1214C2720-1217.31 2722.69-1220 2726-1220L3714-1220C3717.31-1220 3720-1217.31 3720-1214L3720-246C3720-242.686 3717.31-240 3714-240L2726-240C2722.69-240 2720-242.686 2720-246Z" stroke="#FC9432" stroke-width="10" fill-opacity="0"/><path d="M2700-1314C2700-1317.31 2702.69-1320 2706-1320L2905.92-1320C2909.23-1320 2911.92-1317.31 2911.92-1314L2911.92-1204.3C2911.92-1200.99 2909.23-1198.3 2905.92-1198.3L2706-1198.3C2702.69-1198.3 2700-1200.99 2700-1204.3Z" fill="none"/><use width="100%" height="100%" xlink:href="#b" transform="translate(2705 -1244.45)"></use><use width="100%" height="100%" xlink:href="#c" transform="translate(2806.66 -1244.45)"></use><path d="M2740-1234C2740-1237.31 2742.69-1240 2746-1240L3134-1240C3137.31-1240 3140-1237.31 3140-1234L3140-1124.3C3140-1120.99 3137.31-1118.3 3134-1118.3L2746-1118.3C2742.69-1118.3 2740-1120.99 2740-1124.3Z" fill="none"/><use width="100%" height="100%" xlink:href="#d" transform="translate(2745 -1164.45)"></use><use width="100%" height="100%" xlink:href="#e" transform="translate(2891.39 -1164.45)"></use><path d="M3100-1034C3100-1037.31 3102.69-1040 3106-1040L3254-1040C3257.31-1040 3260-1037.31 3260-1034L3260-926C3260-922.686 3257.31-920 3254-920L3106-920C3102.69-920 3100-922.686 3100-926Z" stroke="#FFFFFF" stroke-width="4" fill-opacity="0"/><use width="100%" height="100%" xlink:href="#f" transform="translate(3116.23 -968.611)"></use><path d="M2790-834C2790-837.314 2792.69-840 2796-840L2944-840C2947.31-840 2950-837.314 2950-834L2950-726C2950-722.686 2947.31-720 2944-720L2796-720C2792.69-720 2790-722.686 2790-726Z" stroke="#008A0E" stroke-width="4" fill-opacity="0"/><use width="100%" height="100%" xlink:href="#g" transform="translate(2827.29 -768.611)"></use><path d="M3430-1085.7C3430-1089.01 3432.69-1091.7 3436-1091.7L3624-1091.7C3627.31-1091.7 3630-1089.01 3630-1085.7L3630-977.7C3630-974.386 3627.31-971.7 3624-971.7L3436-971.7C3432.69-971.7 3430-974.386 3430-977.7Z" stroke="#008573" stroke-width="4" fill-opacity="0"/><use width="100%" height="100%" xlink:href="#h" transform="translate(3460.45 -1020.31)"></use><path d="M3100-634C3100-637.314 3102.69-640 3106-640L3254-640C3257.31-640 3260-637.314 3260-634L3260-526C3260-522.686 3257.31-520 3254-520L3106-520C3102.69-520 3100-522.686 3100-526Z" stroke="#FFFFFF" stroke-width="4" fill-opacity="0"/><use width="100%" height="100%" xlink:href="#i" transform="translate(3114.44 -568.611)"></use><path d="M3100-834C3100-837.314 3102.69-840 3106-840L3254-840C3257.31-840 3260-837.314 3260-834L3260-726C3260-722.686 3257.31-720 3254-720L3106-720C3102.69-720 3100-722.686 3100-726Z" stroke="#FFFFFF" stroke-width="4" fill-opacity="0"/><use width="100%" height="100%" xlink:href="#j" transform="translate(3160.41 -768.611)"></use><path d="M3100-457.4C3100-460.714 3102.69-463.4 3106-463.4L3254-463.4C3257.31-463.4 3260-460.714 3260-457.4L3260-349.4C3260-346.086 3257.31-343.4 3254-343.4L3106-343.4C3102.69-343.4 3100-346.086 3100-349.4Z" stroke="#FFFFFF" stroke-width="4" fill-opacity="0"/><use width="100%" height="100%" xlink:href="#k" transform="translate(3142.35 -392.01)"></use><path d="M3430-934C3430-937.314 3432.69-940 3436-940L3624-940C3627.31-940 3630-937.314 3630-934L3630-826C3630-822.686 3627.31-820 3624-820L3436-820C3432.69-820 3430-822.686 3430-826Z" stroke="#008573" stroke-width="4" fill-opacity="0"/><use width="100%" height="100%" xlink:href="#l" transform="translate(3448.38 -868.611)"></use><use width="100%" height="100%" xlink:href="#m" transform="translate(3535.62 -868.611)"></use><path d="M2529.65-780 2760.35-780" stroke="#FFFFFF" stroke-width="4" fill="none"/><path d="M2506-780 2527.65-792.5 2527.65-767.5ZM2784-780 2762.35-767.5 2762.35-792.5Z" stroke="#FFFFFF" stroke-width="4" fill="#FFFFFF"/><path d="M3888-771C3828.35-771 3780-813.1 3780-865 3780-906.53 3809.24-941.57 3854.63-954.4 3852-1076.5 4032-1100 4104-1053 4140-1123.5 4320-1100 4320-1029.5 4428-1053 4536-959 4464-841.5 4536-747.5 4464-630 4320-677 4284-615.9 4140-615.9 4104-677 4032-630 3888-653.5 3888-771Z" fill-opacity="0"/><path d="M3864.32-773.28 3859.7-774.26 3854.35-775.66 3849.12-777.26 3848.97-777.33M3834.31-783.43 3829.77-785.83 3825.37-788.43 3821.17-791.17 3820.67-791.52M3808.37-801.54 3806.4-803.44 3803.23-806.74 3800.3-810.14 3797.76-813.34M3789.32-826.78 3788.77-827.84 3787.07-831.48 3785.57-835.15 3784.24-838.85 3783.42-841.5M3780.39-857.07 3780.32-857.59 3780.07-861.41 3779.99-864.99 3780.13-869.89 3780.37-872.81M3783.17-888.19 3783.3-888.66 3784.74-893.16 3786.44-897.61 3788.38-901.98 3788.78-902.78M3796.95-916.13 3798.88-918.7 3802.21-922.66 3805.86-926.53 3807.28-927.88M3819.35-937.83 3823.59-940.69 3828.86-943.83 3832.78-945.87M3847.18-952.02 3853.54-954.08 3854.64-954.38 3854.64-959.46 3854.74-962.34M3856.59-978.14 3857.39-981.97 3858.44-986.03 3859.64-989.99 3860.84-993.45M3867.52-1007.88 3867.92-1008.58 3870.05-1012.12 3872.37-1015.62 3874.87-1019.07 3876.45-1021.04M3887.25-1032.74 3890.77-1035.91 3894.75-1039.21 3899.05-1042.47 3899.55-1042.81M3912.97-1051.35 3914.12-1052.01 3919.97-1055.07 3926.27-1058.04 3927.21-1058.44M3942.05-1064.16 3948.1-1066.12 3956.36-1068.42 3957.3-1068.66M3972.87-1071.96 3974.25-1072.24 3983.75-1073.64 3988.63-1074.16M4004.51-1075.32 4013.21-1075.52 4020.43-1075.36M4036.31-1074.31 4041.29-1073.79 4049.79-1072.54 4052.07-1072.11M4067.59-1068.61 4071.81-1067.44 4077.98-1065.44 4082.72-1063.68M4097.18-1057.03 4097.44-1056.9 4101.21-1054.73 4104.01-1052.96 4105.11-1055 4106.29-1057 4107.59-1058.98 4108.23-1059.88M4119.27-1071.71 4120.07-1072.38 4122.5-1074.26 4125.12-1076.13 4127.99-1077.99 4131.11-1079.84 4132.73-1080.7M4147.59-1087.2 4151.69-1088.56 4157.01-1090.11 4162.83-1091.53 4163.2-1091.6M4179.22-1094.24 4183.32-1094.71 4191.12-1095.27 4195.4-1095.41M4211.62-1095.23 4216.42-1094.97 4225.09-1094.14 4227.77-1093.77M4243.77-1091.05 4249.57-1089.75 4256.87-1087.78 4259.47-1086.98M4274.71-1081.43 4275.28-1081.19 4280.28-1078.91 4284.78-1076.61 4288.81-1074.34 4289.17-1074.11M4302.27-1064.61 4303.37-1063.66 4305.42-1061.68 4307.27-1059.74 4308.92-1057.86 4310.42-1056.02 4311.75-1054.22 4312.95-1052.45M4319.15-1037.55 4319.18-1037.43 4319.48-1035.78 4319.72-1034.12 4319.87-1032.44 4319.95-1030.74 4319.97-1029.48 4326.52-1030.76 4327.6-1030.93M4343.02-1032.71 4346.25-1032.93 4352.83-1033.1 4358.53-1033M4374-1031.74 4378.72-1031.06 4385.02-1029.89 4389.27-1028.93M4404.17-1024.57 4408.92-1022.83 4414.5-1020.51 4418.5-1018.65M4432.12-1011.19 4434.85-1009.49 4439.4-1006.35 4443.73-1003.1 4444.79-1002.24M4456.27-991.79 4458.8-989.11 4462-985.41 4465.02-981.67 4466.29-979.94M4474.61-966.84 4475.01-966.14 4477.01-962.14 4478.84-958.08 4480.48-953.98 4480.95-952.68M4485.15-937.73 4485.3-937.07 4486.06-932.69 4486.64-928.25 4487.04-923.75 4487.11-922.33M4486.88-906.83 4486.71-904.76 4486.11-899.73 4485.25-894.58 4484.61-891.46M4480.51-876.49 4479.11-872.36 4476.75-866.32 4474.87-862.04M4467.87-848.17 4467.07-846.7 4463.97-841.47 4467.94-836.07 4468.54-835.15M4476.74-821.88 4477.68-820.18 4480.28-815 4482.58-809.9 4483.43-807.8M4488.39-793.02 4489.15-790.15 4490.18-785.4 4490.98-780.72 4491.38-777.72M4492.18-762.15 4492.05-758.45 4491.71-754.25 4491.21-750.1 4490.64-746.64M4486.64-731.57 4486.34-730.65 4484.91-727.01 4483.34-723.46 4481.64-719.98 4480.21-717.36M4471.48-704.46 4471.08-703.94 4468.56-701 4465.91-698.15 4463.11-695.38 4460.71-693.18M4448.21-683.84 4446.96-683.04 4443.26-680.87 4439.4-678.83 4435.36-676.9 4434.46-676.5M4419.78-671.25 4417.25-670.55 4412.19-669.33 4406.89-668.29 4404.55-667.94M4389.05-666.4 4382.88-666.24 4376.08-666.36 4373.43-666.51M4357.91-668.03 4353.33-668.68 4344.86-670.26 4342.56-670.79M4327.44-674.64 4326.34-674.94 4319.98-676.94 4318.63-674.74 4317.15-672.56 4315.7-670.61M4305.16-659.59 4304.98-659.42 4302.25-657.22 4299.28-655 4296.03-652.78 4292.73-650.73M4279.11-643.83 4274.63-641.98 4269.13-639.98 4264.75-638.61M4249.95-634.85 4249.81-634.82 4242.48-633.48 4234.85-632.43M4219.62-631.27 4218.52-631.21 4210.22-631.11 4204.34-631.29M4189.11-632.49 4185.88-632.85 4178.32-634.03 4174.02-634.89M4159.22-638.61 4158.22-638.89 4152.45-640.82 4147.13-642.84 4144.86-643.82M4131.24-650.72 4129.94-651.49 4126.52-653.69 4123.39-655.92 4120.53-658.12 4118.83-659.58M4108.27-670.6 4107.74-671.3 4106.18-673.47 4104.75-675.67 4103.98-676.92 4099.88-674.36 4097.18-672.83M4082.88-665.97 4080.3-664.92 4074.57-662.82 4068.5-660.92 4067.86-660.74M4052.39-657.14 4048.54-656.44 4041.42-655.44 4036.66-654.97M4020.8-654.25 4019.33-654.23 4011.93-654.46 4004.93-654.96M3989.21-657.13 3983.73-658.23 3977.23-659.8 3973.77-660.8M3958.77-666 3954.05-668.04 3948.97-670.48 3944.47-672.88M3931.13-681.48 3927.53-684.25 3923.96-687.27 3920.58-690.35 3919.08-691.85M3908.68-703.83 3906.51-706.89 3904.19-710.44 3902.02-714.07 3900.29-717.27M3894.09-731.89 3893.39-733.97 3892.09-738.37 3891-743 3890.12-747.3M3888.22-763.06 3888.22-763.41 3888.02-769.18 3888-771.01 3882.16-771.14 3880.06-771.29" stroke="#FFFFFF" stroke-width="4" fill="none"/><path d="M4000-974C4000-977.314 4002.69-980 4006-980L4154-980C4157.31-980 4160-977.314 4160-974L4160-866C4160-862.686 4157.31-860 4154-860L4006-860C4002.69-860 4000-862.686 4000-866Z" stroke="#FCCE14" stroke-width="4" fill-opacity="0"/><use width="100%" height="100%" xlink:href="#n" transform="translate(4027.36 -908.611)"></use><path d="M4000-834C4000-837.314 4002.69-840 4006-840L4154-840C4157.31-840 4160-837.314 4160-834L4160-726C4160-722.686 4157.31-720 4154-720L4006-720C4002.69-720 4000-722.686 4000-726Z" stroke="#BA23F6" stroke-width="4" fill-opacity="0"/><use width="100%" height="100%" xlink:href="#o" transform="translate(4031.69 -768.611)"></use><path d="M3632-879.97 3632-880C3632-881.657 3633.34-883 3635-883 3636.66-883 3638-881.657 3638-880 3638-878.343 3636.66-877 3635-877 3633.34-877 3632-878.343 3632-880L3632-880.03M3656.4-879.97 3656.4-880C3656.4-881.657 3657.74-883 3659.4-883 3661.06-883 3662.4-881.657 3662.4-880 3662.4-878.343 3661.06-877 3659.4-877 3657.74-877 3656.4-878.343 3656.4-880L3656.4-880.03M3680.77-879.97 3680.77-880C3680.77-881.657 3682.11-883 3683.77-883 3685.43-883 3686.77-881.657 3686.77-880 3686.77-878.343 3685.43-877 3683.77-877 3682.11-877 3680.77-878.343 3680.77-880L3680.77-880.03M3705.15-879.97 3705.15-880C3705.15-881.657 3706.49-883 3708.15-883 3709.81-883 3711.15-881.657 3711.15-880 3711.15-878.343 3709.81-877 3708.15-877 3706.49-877 3705.15-878.343 3705.15-880L3705.15-880.03M3729.55-879.97 3729.55-880C3729.55-881.657 3730.89-883 3732.55-883 3734.21-883 3735.55-881.657 3735.55-880 3735.55-878.343 3734.21-877 3732.55-877 3730.89-877 3729.55-878.343 3729.55-880L3729.55-880.03M3753.92-879.97 3753.92-880C3753.92-881.657 3755.26-883 3756.92-883 3758.58-883 3759.92-881.657 3759.92-880 3759.92-878.343 3758.58-877 3756.92-877 3755.26-877 3753.92-878.343 3753.92-880L3753.92-880.03M3778.32-879.97 3778.32-880C3778.32-881.657 3779.66-883 3781.32-883 3782.98-883 3784.32-881.657 3784.32-880 3784.32-878.343 3782.98-877 3781.32-877 3779.66-877 3778.32-878.343 3778.32-880L3778.32-880.03M3802.69-879.97 3802.69-880C3802.69-881.657 3804.03-883 3805.69-883 3807.35-883 3808.69-881.657 3808.69-880 3808.69-878.343 3807.35-877 3805.69-877 3804.03-877 3802.69-878.343 3802.69-880L3802.69-880.03M3827.07-879.97 3827.07-880C3827.07-881.657 3828.41-883 3830.07-883 3831.73-883 3833.07-881.657 3833.07-880 3833.07-878.343 3831.73-877 3830.07-877 3828.41-877 3827.07-878.343 3827.07-880L3827.07-880.03M3851.45-879.97 3851.45-880C3851.45-881.657 3852.79-883 3854.45-883 3856.11-883 3857.45-881.657 3857.45-880 3857.45-878.343 3856.11-877 3854.45-877 3852.79-877 3851.45-878.343 3851.45-880L3851.45-880.03M3875.85-879.97 3875.85-880C3875.85-881.657 3877.19-883 3878.85-883 3880.51-883 3881.85-881.657 3881.85-880 3881.85-878.343 3880.51-877 3878.85-877 3877.19-877 3875.85-878.343 3875.85-880L3875.85-880.03M3900.22-879.97 3900.22-880C3900.22-881.657 3901.56-883 3903.22-883 3904.88-883 3906.22-881.657 3906.22-880 3906.22-878.343 3904.88-877 3903.22-877 3901.56-877 3900.22-878.343 3900.22-880L3900.22-880.03M3924.6-879.97 3924.6-880C3924.6-881.657 3925.94-883 3927.6-883 3929.26-883 3930.6-881.657 3930.6-880 3930.6-878.343 3929.26-877 3927.6-877 3925.94-877 3924.6-878.343 3924.6-880L3924.6-880.03M3949-879.97 3949-880C3949-881.657 3950.34-883 3952-883 3953.66-883 3955-881.657 3955-880 3955-878.343 3953.66-877 3952-877 3950.34-877 3949-878.343 3949-880L3949-880.03M3955-851.97 3955-852C3955-853.657 3956.34-855 3958-855 3959.66-855 3961-853.657 3961-852 3961-850.343 3959.66-849 3958-849 3956.34-849 3955-850.343 3955-852L3955-852.03M3955-829.97 3955-830C3955-831.657 3956.34-833 3958-833 3959.66-833 3961-831.657 3961-830 3961-828.343 3959.66-827 3958-827 3956.34-827 3955-828.343 3955-830L3955-830.03M3955-807.97 3955-808C3955-809.657 3956.34-811 3958-811 3959.66-811 3961-809.657 3961-808 3961-806.343 3959.66-805 3958-805 3956.34-805 3955-806.343 3955-808L3955-808.03M3955-785.97 3955-786C3955-787.657 3956.34-789 3958-789 3959.66-789 3961-787.657 3961-786 3961-784.343 3959.66-783 3958-783 3956.34-783 3955-784.343 3955-786L3955-786.03" fill="#635DFF"/><path d="M3635.08-877.02 3632-877.02 3632-883 3635.08-883Z" stroke="#635DFF" stroke-width="0.05" fill="#635DFF"/><path d="M3992-780 3979-772.5 3979-787.5Z" stroke="#635DFF" stroke-width="6" fill="#635DFF"/><path d="M3264-980 3339-980C3342.31-980 3345-977.314 3345-974L3345-886C3345-882.686 3347.69-880 3351-880L3409-880" stroke="#FFFFFF" stroke-width="4" fill="none"/><path d="M3264.05-978.02 3262-978.02 3262-982 3264.05-982Z" stroke="#FFFFFF" stroke-width="0.05" fill="#FFFFFF"/><path d="M3424-880 3411-872.5 3411-887.5Z" stroke="#FFFFFF" stroke-width="4" fill="#FFFFFF"/><path d="M3264-980 3339-980C3342.31-980 3345-982.686 3345-986L3345-1025.7C3345-1029.01 3347.69-1031.7 3351-1031.7L3409-1031.7" stroke="#FFFFFF" stroke-width="4" fill="none"/><path d="M3264.05-978.02 3262-978.02 3262-982 3264.05-982Z" stroke="#FFFFFF" stroke-width="0.05" fill="#FFFFFF"/><path d="M3424-1031.7 3411-1024.2 3411-1039.2Z" stroke="#FFFFFF" stroke-width="4" fill="#FFFFFF"/><path d="M3177-1044.97 3177-1045C3177-1046.66 3178.34-1048 3180-1048 3181.66-1048 3183-1046.66 3183-1045 3183-1043.34 3181.66-1042 3180-1042 3178.34-1042 3177-1043.34 3177-1045L3177-1045.03M3177-1074.47 3177-1074.5C3177-1076.16 3178.34-1077.5 3180-1077.5 3181.66-1077.5 3183-1076.16 3183-1074.5 3183-1072.84 3181.66-1071.5 3180-1071.5 3178.34-1071.5 3177-1072.84 3177-1074.5L3177-1074.53M3177-1103.97 3177-1104C3177-1105.66 3178.34-1107 3180-1107 3181.66-1107 3183-1105.66 3183-1104 3183-1102.34 3181.66-1101 3180-1101 3178.34-1101 3177-1102.34 3177-1104L3177-1104.03M3207-1109.97 3207-1110C3207-1111.66 3208.34-1113 3210-1113 3211.66-1113 3213-1111.66 3213-1110 3213-1108.34 3211.66-1107 3210-1107 3208.34-1107 3207-1108.34 3207-1110L3207-1110.03M3231-1109.97 3231-1110C3231-1111.66 3232.34-1113 3234-1113 3235.66-1113 3237-1111.66 3237-1110 3237-1108.34 3235.66-1107 3234-1107 3232.34-1107 3231-1108.34 3231-1110L3231-1110.03M3255-1109.97 3255-1110C3255-1111.66 3256.34-1113 3258-1113 3259.66-1113 3261-1111.66 3261-1110 3261-1108.34 3259.66-1107 3258-1107 3256.34-1107 3255-1108.34 3255-1110L3255-1110.03M3279-1109.97 3279-1110C3279-1111.66 3280.34-1113 3282-1113 3283.66-1113 3285-1111.66 3285-1110 3285-1108.34 3283.66-1107 3282-1107 3280.34-1107 3279-1108.34 3279-1110L3279-1110.03M3303-1109.97 3303-1110C3303-1111.66 3304.34-1113 3306-1113 3307.66-1113 3309-1111.66 3309-1110 3309-1108.34 3307.66-1107 3306-1107 3304.34-1107 3303-1108.34 3303-1110L3303-1110.03M3327-1109.97 3327-1110C3327-1111.66 3328.34-1113 3330-1113 3331.66-1113 3333-1111.66 3333-1110 3333-1108.34 3331.66-1107 3330-1107 3328.34-1107 3327-1108.34 3327-1110L3327-1110.03M3351-1109.97 3351-1110C3351-1111.66 3352.34-1113 3354-1113 3355.66-1113 3357-1111.66 3357-1110 3357-1108.34 3355.66-1107 3354-1107 3352.34-1107 3351-1108.34 3351-1110L3351-1110.03M3375-1109.97 3375-1110C3375-1111.66 3376.34-1113 3378-1113 3379.66-1113 3381-1111.66 3381-1110 3381-1108.34 3379.66-1107 3378-1107 3376.34-1107 3375-1108.34 3375-1110L3375-1110.03M3399-1109.97 3399-1110C3399-1111.66 3400.34-1113 3402-1113 3403.66-1113 3405-1111.66 3405-1110 3405-1108.34 3403.66-1107 3402-1107 3400.34-1107 3399-1108.34 3399-1110L3399-1110.03M3423-1109.97 3423-1110C3423-1111.66 3424.34-1113 3426-1113 3427.66-1113 3429-1111.66 3429-1110 3429-1108.34 3427.66-1107 3426-1107 3424.34-1107 3423-1108.34 3423-1110L3423-1110.03M3447-1109.97 3447-1110C3447-1111.66 3448.34-1113 3450-1113 3451.66-1113 3453-1111.66 3453-1110 3453-1108.34 3451.66-1107 3450-1107 3448.34-1107 3447-1108.34 3447-1110L3447-1110.03M3471-1109.97 3471-1110C3471-1111.66 3472.34-1113 3474-1113 3475.66-1113 3477-1111.66 3477-1110 3477-1108.34 3475.66-1107 3474-1107 3472.34-1107 3471-1108.34 3471-1110L3471-1110.03M3495-1109.97 3495-1110C3495-1111.66 3496.34-1113 3498-1113 3499.66-1113 3501-1111.66 3501-1110 3501-1108.34 3499.66-1107 3498-1107 3496.34-1107 3495-1108.34 3495-1110L3495-1110.03M3519-1109.97 3519-1110C3519-1111.66 3520.34-1113 3522-1113 3523.66-1113 3525-1111.66 3525-1110 3525-1108.34 3523.66-1107 3522-1107 3520.34-1107 3519-1108.34 3519-1110L3519-1110.03M3543-1109.97 3543-1110C3543-1111.66 3544.34-1113 3546-1113 3547.66-1113 3549-1111.66 3549-1110 3549-1108.34 3547.66-1107 3546-1107 3544.34-1107 3543-1108.34 3543-1110L3543-1110.03M3567-1109.97 3567-1110C3567-1111.66 3568.34-1113 3570-1113 3571.66-1113 3573-1111.66 3573-1110 3573-1108.34 3571.66-1107 3570-1107 3568.34-1107 3567-1108.34 3567-1110L3567-1110.03M3591-1109.97 3591-1110C3591-1111.66 3592.34-1113 3594-1113 3595.66-1113 3597-1111.66 3597-1110 3597-1108.34 3595.66-1107 3594-1107 3592.34-1107 3591-1108.34 3591-1110L3591-1110.03M3615-1109.97 3615-1110C3615-1111.66 3616.34-1113 3618-1113 3619.66-1113 3621-1111.66 3621-1110 3621-1108.34 3619.66-1107 3618-1107 3616.34-1107 3615-1108.34 3615-1110L3615-1110.03M3639-1109.97 3639-1110C3639-1111.66 3640.34-1113 3642-1113 3643.66-1113 3645-1111.66 3645-1110 3645-1108.34 3643.66-1107 3642-1107 3640.34-1107 3639-1108.34 3639-1110L3639-1110.03M3663-1109.97 3663-1110C3663-1111.66 3664.34-1113 3666-1113 3667.66-1113 3669-1111.66 3669-1110 3669-1108.34 3667.66-1107 3666-1107 3664.34-1107 3663-1108.34 3663-1110L3663-1110.03M3687-1109.97 3687-1110C3687-1111.66 3688.34-1113 3690-1113 3691.66-1113 3693-1111.66 3693-1110 3693-1108.34 3691.66-1107 3690-1107 3688.34-1107 3687-1108.34 3687-1110L3687-1110.03M3711-1109.97 3711-1110C3711-1111.66 3712.34-1113 3714-1113 3715.66-1113 3717-1111.66 3717-1110 3717-1108.34 3715.66-1107 3714-1107 3712.34-1107 3711-1108.34 3711-1110L3711-1110.03M3735-1109.97 3735-1110C3735-1111.66 3736.34-1113 3738-1113 3739.66-1113 3741-1111.66 3741-1110 3741-1108.34 3739.66-1107 3738-1107 3736.34-1107 3735-1108.34 3735-1110L3735-1110.03M3759-1109.97 3759-1110C3759-1111.66 3760.34-1113 3762-1113 3763.66-1113 3765-1111.66 3765-1110 3765-1108.34 3763.66-1107 3762-1107 3760.34-1107 3759-1108.34 3759-1110L3759-1110.03M3783-1109.97 3783-1110C3783-1111.66 3784.34-1113 3786-1113 3787.66-1113 3789-1111.66 3789-1110 3789-1108.34 3787.66-1107 3786-1107 3784.34-1107 3783-1108.34 3783-1110L3783-1110.03M3807-1109.97 3807-1110C3807-1111.66 3808.34-1113 3810-1113 3811.66-1113 3813-1111.66 3813-1110 3813-1108.34 3811.66-1107 3810-1107 3808.34-1107 3807-1108.34 3807-1110L3807-1110.03M3831-1109.97 3831-1110C3831-1111.66 3832.34-1113 3834-1113 3835.66-1113 3837-1111.66 3837-1110 3837-1108.34 3835.66-1107 3834-1107 3832.34-1107 3831-1108.34 3831-1110L3831-1110.03M3855-1109.97 3855-1110C3855-1111.66 3856.34-1113 3858-1113 3859.66-1113 3861-1111.66 3861-1110 3861-1108.34 3859.66-1107 3858-1107 3856.34-1107 3855-1108.34 3855-1110L3855-1110.03M3879-1109.97 3879-1110C3879-1111.66 3880.34-1113 3882-1113 3883.66-1113 3885-1111.66 3885-1110 3885-1108.34 3883.66-1107 3882-1107 3880.34-1107 3879-1108.34 3879-1110L3879-1110.03M3903-1109.97 3903-1110C3903-1111.66 3904.34-1113 3906-1113 3907.66-1113 3909-1111.66 3909-1110 3909-1108.34 3907.66-1107 3906-1107 3904.34-1107 3903-1108.34 3903-1110L3903-1110.03M3927-1109.97 3927-1110C3927-1111.66 3928.34-1113 3930-1113 3931.66-1113 3933-1111.66 3933-1110 3933-1108.34 3931.66-1107 3930-1107 3928.34-1107 3927-1108.34 3927-1110L3927-1110.03M3951-1109.97 3951-1110C3951-1111.66 3952.34-1113 3954-1113 3955.66-1113 3957-1111.66 3957-1110 3957-1108.34 3955.66-1107 3954-1107 3952.34-1107 3951-1108.34 3951-1110L3951-1110.03M3975-1109.97 3975-1110C3975-1111.66 3976.34-1113 3978-1113 3979.66-1113 3981-1111.66 3981-1110 3981-1108.34 3979.66-1107 3978-1107 3976.34-1107 3975-1108.34 3975-1110L3975-1110.03M3999-1109.97 3999-1110C3999-1111.66 4000.34-1113 4002-1113 4003.66-1113 4005-1111.66 4005-1110 4005-1108.34 4003.66-1107 4002-1107 4000.34-1107 3999-1108.34 3999-1110L3999-1110.03M4023-1109.97 4023-1110C4023-1111.66 4024.34-1113 4026-1113 4027.66-1113 4029-1111.66 4029-1110 4029-1108.34 4027.66-1107 4026-1107 4024.34-1107 4023-1108.34 4023-1110L4023-1110.03M4047-1109.97 4047-1110C4047-1111.66 4048.34-1113 4050-1113 4051.66-1113 4053-1111.66 4053-1110 4053-1108.34 4051.66-1107 4050-1107 4048.34-1107 4047-1108.34 4047-1110L4047-1110.03M4071-1109.97 4071-1110C4071-1111.66 4072.34-1113 4074-1113 4075.66-1113 4077-1111.66 4077-1110 4077-1108.34 4075.66-1107 4074-1107 4072.34-1107 4071-1108.34 4071-1110L4071-1110.03M4077-1078.97 4077-1079C4077-1080.66 4078.34-1082 4080-1082 4081.66-1082 4083-1080.66 4083-1079 4083-1077.34 4081.66-1076 4080-1076 4078.34-1076 4077-1077.34 4077-1079L4077-1079.03M4077-1053.96 4077-1053.99C4077-1055.65 4078.34-1056.99 4080-1056.99 4081.66-1056.99 4083-1055.65 4083-1053.99 4083-1052.33 4081.66-1050.99 4080-1050.99 4078.34-1050.99 4077-1052.33 4077-1053.99L4077-1054.02M4077-1028.95 4077-1028.98C4077-1030.64 4078.34-1031.98 4080-1031.98 4081.66-1031.98 4083-1030.64 4083-1028.98 4083-1027.32 4081.66-1025.98 4080-1025.98 4078.34-1025.98 4077-1027.32 4077-1028.98L4077-1029M4077-1003.94 4077-1003.97C4077-1005.63 4078.34-1006.97 4080-1006.97 4081.66-1006.97 4083-1005.63 4083-1003.97 4083-1002.31 4081.66-1000.97 4080-1000.97 4078.34-1000.97 4077-1002.31 4077-1003.97L4077-1003.99" fill="#FFFFFF"/><path d="M3182.97-1042 3177.03-1042 3177.03-1045.08 3182.97-1045.08Z" stroke="#FFFFFF" stroke-width="0.05" fill="#FFFFFF"/><path d="M4080-988 4072.5-1001 4087.5-1001Z" stroke="#FFFFFF" stroke-width="6" fill="#FFFFFF"/><path d="M2954-780 3019-780C3022.31-780 3025-782.686 3025-786L3025-974C3025-977.314 3027.69-980 3031-980L3079-980" stroke="#008A0E" stroke-width="4" fill="none"/><path d="M2954.05-778.02 2952-778.02 2952-782 2954.05-782Z" stroke="#008A0E" stroke-width="0.05" fill="#008A0E"/><path d="M3094-980 3081-972.5 3081-987.5Z" stroke="#008A0E" stroke-width="4" fill="#008A0E"/><path d="M2954-780 3019-780C3022.31-780 3025-777.314 3025-774L3025-586C3025-582.686 3027.69-580 3031-580L3079-580" stroke="#008A0E" stroke-width="4" fill="none"/><path d="M2954.05-778.02 2952-778.02 2952-782 2954.05-782Z" stroke="#008A0E" stroke-width="0.05" fill="#008A0E"/><path d="M3094-580 3081-572.5 3081-587.5Z" stroke="#008A0E" stroke-width="4" fill="#008A0E"/><path d="M3180-716 3180-684C3180-680.686 3177.31-678 3174-678L2876-678C2872.69-678 2870-680.686 2870-684L2870-699" stroke="#008A0E" stroke-width="4" fill="none"/><path d="M3181.97-715.95 3178.03-715.95 3178.03-718 3181.97-718Z" stroke="#008A0E" stroke-width="0.05" fill="#008A0E"/><path d="M2870-714 2877.5-701 2862.5-701Z" stroke="#008A0E" stroke-width="4" fill="#008A0E"/><path d="M2954-780 3019-780C3022.31-780 3025-777.314 3025-774L3025-409.4C3025-406.086 3027.69-403.4 3031-403.4L3079-403.4" stroke="#008A0E" stroke-width="4" fill="none"/><path d="M2954.05-778.02 2952-778.02 2952-782 2954.05-782Z" stroke="#008A0E" stroke-width="0.05" fill="#008A0E"/><path d="M3094-403.4 3081-395.9 3081-410.9Z" stroke="#008A0E" stroke-width="4" fill="#008A0E"/><path d="M3180-916 3180-861" stroke="#FFFFFF" stroke-width="4" fill="none"/><path d="M3181.97-915.95 3178.03-915.95 3178.03-918 3181.97-918Z" stroke="#FFFFFF" stroke-width="0.05" fill="#FFFFFF"/><path d="M3180-846 3172.5-859 3187.5-859Z" stroke="#FFFFFF" stroke-width="4" fill="#FFFFFF"/></g></svg>