<svg xmlns="http://www.w3.org/2000/svg" xmlns:xlink="http://www.w3.org/1999/xlink" xmlns:lucid="lucid" width="2342" height="1085"><g transform="translate(-1637.9998708798792 1400)" lucid:page-tab-id="0_0"><path d="M1800-860c0 44.18-35.82 80-80 80s-80-35.82-80-80 35.82-80 80-80 80 35.82 80 80z" stroke="#6f7681" stroke-width="4" fill-opacity="0"/><use xlink:href="#a" transform="matrix(1,0,0,1,1645,-935) translate(32.75390625000001 86.38888888888889)"/><path d="M2220-1214a6 6 0 0 1 6-6h928a6 6 0 0 1 6 6v848a6 6 0 0 1-6 6h-928a6 6 0 0 1-6-6z" stroke="#635dff" stroke-width="10" fill-opacity="0"/><path d="M2200-1294a6 6 0 0 1 6-6h988a6 6 0 0 1 6 6v968a6 6 0 0 1-6 6h-988a6 6 0 0 1-6-6z" stroke="#fc9432" stroke-width="10" fill-opacity="0"/><path d="M2180-1394a6 6 0 0 1 6-6h199.92a6 6 0 0 1 6 6v109.7a6 6 0 0 1-6 6H2186a6 6 0 0 1-6-6z" fill="none"/><use xlink:href="#b" transform="matrix(1,0,0,1,2185,-1395) translate(0 70.55078125)"/><use xlink:href="#c" transform="matrix(1,0,0,1,2185,-1395) translate(101.66015625 70.55078125)"/><path d="M2220-1314a6 6 0 0 1 6-6h388a6 6 0 0 1 6 6v109.7a6 6 0 0 1-6 6h-388a6 6 0 0 1-6-6z" fill="none"/><use xlink:href="#d" transform="matrix(1,0,0,1,2225,-1315) translate(0 70.55078125)"/><use xlink:href="#e" transform="matrix(1,0,0,1,2225,-1315) translate(146.38671875 70.55078125)"/><path d="M2570-1114a6 6 0 0 1 6-6h148a6 6 0 0 1 6 6v108a6 6 0 0 1-6 6h-148a6 6 0 0 1-6-6z" stroke="#6f7681" stroke-width="4" fill-opacity="0"/><use xlink:href="#f" transform="matrix(1,0,0,1,2582,-1108) translate(4.228298611111114 59.388888888888886)"/><path d="M2270-914a6 6 0 0 1 6-6h148a6 6 0 0 1 6 6v108a6 6 0 0 1-6 6h-148a6 6 0 0 1-6-6z" stroke="#008a0e" stroke-width="4" fill-opacity="0"/><use xlink:href="#g" transform="matrix(1,0,0,1,2282,-908) translate(25.29058159722222 59.388888888888886)"/><path d="M2910-1165.7a6 6 0 0 1 6-6h188a6 6 0 0 1 6 6v108a6 6 0 0 1-6 6h-188a6 6 0 0 1-6-6z" stroke="#008573" stroke-width="4" fill-opacity="0"/><use xlink:href="#h" transform="matrix(1,0,0,1,2922,-1159.6993851159682) translate(18.448133680555543 59.388888888888886)"/><path d="M2570-714a6 6 0 0 1 6-6h148a6 6 0 0 1 6 6v108a6 6 0 0 1-6 6h-148a6 6 0 0 1-6-6z" stroke="#6f7681" stroke-width="4" fill-opacity="0"/><use xlink:href="#i" transform="matrix(1,0,0,1,2582,-708) translate(2.4357638888889 59.388888888888886)"/><path d="M2570-914a6 6 0 0 1 6-6h148a6 6 0 0 1 6 6v108a6 6 0 0 1-6 6h-148a6 6 0 0 1-6-6z" stroke="#6f7681" stroke-width="4" fill-opacity="0"/><use xlink:href="#j" transform="matrix(1,0,0,1,2582,-908) translate(48.41124131944444 59.388888888888886)"/><path d="M2570-537.4a6 6 0 0 1 6-6h148a6 6 0 0 1 6 6v108a6 6 0 0 1-6 6h-148a6 6 0 0 1-6-6z" stroke="#6f7681" stroke-width="4" fill-opacity="0"/><use xlink:href="#k" transform="matrix(1,0,0,1,2582,-531.3987702319362) translate(30.34917534722223 59.388888888888886)"/><path d="M2910-1014a6 6 0 0 1 6-6h188a6 6 0 0 1 6 6v108a6 6 0 0 1-6 6h-188a6 6 0 0 1-6-6z" stroke="#008573" stroke-width="4" fill-opacity="0"/><use xlink:href="#l" transform="matrix(1,0,0,1,2922,-1008) translate(6.37890625 59.388888888888886)"/><use xlink:href="#m" transform="matrix(1,0,0,1,2922,-1008) translate(93.62065972222223 59.388888888888886)"/><path d="M1804-860h115" stroke="#6f7681" stroke-width="4" fill="none"/><path d="M1804.05-858.02h-2.1l.05-1.95v-.75l-.05-1.25h2.1z" stroke="#6f7681" stroke-width=".05" fill="#6f7681"/><path d="M1934-860l-13 7.5v-15z" stroke="#6f7681" stroke-width="4" fill="#6f7681"/><path d="M3368-851c-59.65 0-108-42.1-108-94 0-41.53 29.24-76.57 74.63-89.4C3332-1156.5 3512-1180 3584-1133c36-70.5 216-47 216 23.5 108-23.5 216 70.5 144 188 72 94 0 211.5-144 164.5-36 61.1-180 61.1-216 0-72 47-216 23.5-216-94z" fill-opacity="0"/><path d="M3344.32-853.28l-4.62-.98-5.35-1.4-5.23-1.6-.15-.07m-14.66-6.1l-4.54-2.4-4.4-2.6-4.2-2.74-.5-.35m-12.3-10.02l-1.97-1.9-3.17-3.3-2.93-3.4-2.54-3.2m-8.44-13.44l-.55-1.06-1.7-3.64-1.5-3.67-1.33-3.7-.82-2.65m-3.03-15.57l-.07-.52-.25-3.82-.08-3.58.14-4.9.24-2.92m2.8-15.38l.13-.47 1.44-4.5 1.7-4.45 1.94-4.37.4-.8m8.17-13.35l1.93-2.57 3.33-3.96 3.65-3.87 1.42-1.35m12.07-9.95l4.24-2.86 5.27-3.14 3.92-2.04m14.4-6.15l6.36-2.06 1.1-.3v-5.08l.1-2.88m1.85-15.8l.8-3.83 1.05-4.06 1.2-3.96 1.2-3.46m6.68-14.43l.4-.7 2.13-3.54 2.32-3.5 2.5-3.45 1.58-1.97m10.8-11.7l3.52-3.17 3.98-3.3 4.3-3.26.5-.34m13.42-8.54l1.15-.66 5.85-3.06 6.3-2.97.94-.4m14.84-5.72l6.05-1.96 8.26-2.3.94-.24m15.57-3.3l1.38-.28 9.5-1.4 4.88-.52m15.88-1.16l8.7-.2 7.22.16m15.88 1.05l4.98.52 8.5 1.25 2.28.43m15.52 3.5l4.22 1.17 6.17 2 4.74 1.76m14.46 6.65l.26.13 3.77 2.17 2.8 1.77 1.1-2.04 1.18-2 1.3-1.98.64-.9m11.04-11.83l.8-.67 2.43-1.88 2.62-1.87 2.87-1.86 3.12-1.85 1.62-.86m14.86-6.5l4.1-1.36 5.33-1.55 5.8-1.42.38-.07m16.02-2.64l4.1-.47 7.8-.56 4.28-.14m16.22.18l4.8.26 8.67.83 2.68.37m16 2.72l5.8 1.3 7.3 1.97 2.6.8m15.24 5.55l.57.24 5 2.28 4.5 2.3 4.03 2.27.36.23m13.12 9.5l1.07.95 2.05 1.98 1.85 1.94 1.65 1.88 1.5 1.84 1.33 1.8 1.2 1.77m6.2 14.9l.04.12.3 1.65.22 1.66.15 1.68.08 1.7.02 1.26 6.55-1.28 1.08-.17m15.42-1.78l3.23-.22 6.58-.17 5.7.1m15.47 1.26l4.72.68 6.3 1.17 4.25.96m14.9 4.36l4.75 1.74 5.58 2.32 4 1.86m13.62 7.46l2.73 1.7 4.55 3.14 4.33 3.25 1.06.86m11.47 10.45l2.53 2.68 3.2 3.7 3.02 3.74 1.27 1.73m8.32 13.1l.4.7 2 4 1.83 4.06 1.64 4.1.47 1.3m4.2 14.95l.15.66.76 4.38.58 4.44.4 4.5.07 1.42m-.24 15.5l-.17 2.07-.6 5.03-.86 5.15-.64 3.12m-4.1 14.97l-1.4 4.13-2.36 6.04-1.88 4.28m-7 13.87l-.8 1.47-3.1 5.23 3.97 5.4.6.92m8.2 13.27l.94 1.7 2.6 5.18 2.3 5.1.85 2.1m4.96 14.78l.76 2.87 1.03 4.75.8 4.68.4 3m.8 15.57l-.13 3.7-.34 4.2-.5 4.15-.57 3.46m-4 15.07l-.3.92-1.43 3.64-1.57 3.55-1.7 3.48-1.43 2.62m-8.73 12.9l-.4.52-2.5 2.94-2.67 2.85-2.8 2.77-2.4 2.2m-12.5 9.34l-1.25.8-3.7 2.17-3.86 2.04-4.04 1.93-.9.4m-14.68 5.25l-2.53.7-5.06 1.22-5.3 1.04-2.34.35m-15.5 1.54l-6.17.16-6.8-.12-2.65-.15m-15.52-1.52l-4.58-.65-8.47-1.58-2.3-.53m-15.12-3.85l-1.1-.3-6.36-2-1.35 2.2-1.48 2.18-1.45 1.95m-10.54 11.02l-.18.17-2.73 2.2-2.97 2.22-3.25 2.22-3.3 2.05m-13.62 6.9l-4.48 1.85-5.5 2-4.38 1.37m-14.8 3.76l-.14.03-7.33 1.34-7.63 1.05m-15.23 1.16l-1.1.06-8.3.1-5.88-.18m-15.23-1.2l-3.23-.36-7.56-1.18-4.3-.86m-14.8-3.72l-1-.28-5.77-1.93-5.32-2.02-2.27-.98m-13.62-6.9l-1.3-.77-3.42-2.2-3.13-2.23-2.86-2.2-1.7-1.46m-10.56-11.02l-.53-.7-1.56-2.17-1.43-2.2-.77-1.25-4.1 2.56-2.7 1.53m-14.3 6.86l-2.58 1.05-5.73 2.1-6.07 1.9-.64.18m-15.47 3.6l-3.85.7-7.12 1-4.76.47m-15.86.72l-1.47.02-7.4-.23-7-.5m-15.72-2.17l-5.48-1.1-6.5-1.57-3.46-1m-15-5.2l-4.72-2.04-5.08-2.44-4.5-2.4m-13.34-8.6l-3.6-2.77-3.57-3.02-3.38-3.08-1.5-1.5m-10.4-11.98l-2.17-3.06-2.32-3.55-2.17-3.63-1.73-3.2m-6.2-14.62l-.7-2.08-1.3-4.4L3371-823l-.88-4.3m-1.9-15.76v-.35l-.2-5.77-.02-1.83-5.84-.13-2.1-.15" stroke="#6f7681" stroke-width="4" fill="none"/><path d="M3480-1054a6 6 0 0 1 6-6h148a6 6 0 0 1 6 6v108a6 6 0 0 1-6 6h-148a6 6 0 0 1-6-6z" stroke="#fcce14" stroke-width="4" fill-opacity="0"/><use xlink:href="#n" transform="matrix(1,0,0,1,3492,-1048) translate(15.36328125 59.388888888888886)"/><path d="M3480-914a6 6 0 0 1 6-6h148a6 6 0 0 1 6 6v108a6 6 0 0 1-6 6h-148a6 6 0 0 1-6-6z" stroke="#ba23f6" stroke-width="4" fill-opacity="0"/><use xlink:href="#o" transform="matrix(1,0,0,1,3492,-908) translate(19.68511284722223 59.388888888888886)"/><path d="M3112-959.98v-.02a2 2 0 0 1 2-2 2 2 0 0 1 2 2 2 2 0 0 1-2 2 2 2 0 0 1-2-2v-.02m15.9.04v-.02a2 2 0 0 1 2-2 2 2 0 0 1 2 2 2 2 0 0 1-2 2 2 2 0 0 1-2-2v-.02m15.9.04v-.02a2 2 0 0 1 2-2 2 2 0 0 1 2 2 2 2 0 0 1-2 2 2 2 0 0 1-2-2v-.02m15.9.04v-.02a2 2 0 0 1 2-2 2 2 0 0 1 2 2 2 2 0 0 1-2 2 2 2 0 0 1-2-2v-.02m15.9.04v-.02a2 2 0 0 1 2-2 2 2 0 0 1 2 2 2 2 0 0 1-2 2 2 2 0 0 1-2-2v-.02m15.9.04v-.02a2 2 0 0 1 2-2 2 2 0 0 1 2 2 2 2 0 0 1-2 2 2 2 0 0 1-2-2v-.02m15.9.04v-.02a2 2 0 0 1 2-2 2 2 0 0 1 2 2 2 2 0 0 1-2 2 2 2 0 0 1-2-2v-.02m15.9.04v-.02a2 2 0 0 1 2-2 2 2 0 0 1 2 2 2 2 0 0 1-2 2 2 2 0 0 1-2-2v-.02m15.9.04v-.02a2 2 0 0 1 2-2 2 2 0 0 1 2 2 2 2 0 0 1-2 2 2 2 0 0 1-2-2v-.02m15.9.04v-.02a2 2 0 0 1 2-2 2 2 0 0 1 2 2 2 2 0 0 1-2 2 2 2 0 0 1-2-2v-.02m15.9.04v-.02a2 2 0 0 1 2-2 2 2 0 0 1 2 2 2 2 0 0 1-2 2 2 2 0 0 1-2-2v-.02m15.9.04v-.02a2 2 0 0 1 2-2 2 2 0 0 1 2 2 2 2 0 0 1-2 2 2 2 0 0 1-2-2v-.02m15.9.04v-.02a2 2 0 0 1 2-2 2 2 0 0 1 2 2 2 2 0 0 1-2 2 2 2 0 0 1-2-2v-.02m15.9.04v-.02a2 2 0 0 1 2-2 2 2 0 0 1 2 2 2 2 0 0 1-2 2 2 2 0 0 1-2-2v-.02m15.9.04v-.02a2 2 0 0 1 2-2 2 2 0 0 1 2 2 2 2 0 0 1-2 2 2 2 0 0 1-2-2v-.02m15.9.04v-.02a2 2 0 0 1 2-2 2 2 0 0 1 2 2 2 2 0 0 1-2 2 2 2 0 0 1-2-2v-.02m15.9.04v-.02a2 2 0 0 1 2-2 2 2 0 0 1 2 2 2 2 0 0 1-2 2 2 2 0 0 1-2-2v-.02m15.9.04v-.02a2 2 0 0 1 2-2 2 2 0 0 1 2 2 2 2 0 0 1-2 2 2 2 0 0 1-2-2v-.02m15.9.04v-.02a2 2 0 0 1 2-2 2 2 0 0 1 2 2 2 2 0 0 1-2 2 2 2 0 0 1-2-2v-.02m15.9.04v-.02a2 2 0 0 1 2-2 2 2 0 0 1 2 2 2 2 0 0 1-2 2 2 2 0 0 1-2-2v-.02m15.9.04v-.02a2 2 0 0 1 2-2 2 2 0 0 1 2 2 2 2 0 0 1-2 2 2 2 0 0 1-2-2v-.02m6 20.7a2 2 0 0 1 2-2 2 2 0 0 1 2 2 2 2 0 0 1-2 2 2 2 0 0 1-2-2v-.03m0 14.7v-.02a2 2 0 0 1 2-2 2 2 0 0 1 2 2 2 2 0 0 1-2 2 2 2 0 0 1-2-2v-.02m0 14.72v-.02a2 2 0 0 1 2-2 2 2 0 0 1 2 2 2 2 0 0 1-2 2 2 2 0 0 1-2-2v-.02m0 14.7a2 2 0 0 1 2-2 2 2 0 0 1 2 2 2 2 0 0 1-2 2 2 2 0 0 1-2-2v-.03m0 14.7v-.02a2 2 0 0 1 2-2 2 2 0 0 1 2 2 2 2 0 0 1-2 2 2 2 0 0 1-2-2v-.02m0 14.72v-.02a2 2 0 0 1 2-2 2 2 0 0 1 2 2 2 2 0 0 1-2 2 2 2 0 0 1-2-2v-.02m21 6.04v-.02a2 2 0 0 1 2-2 2 2 0 0 1 2 2 2 2 0 0 1-2 2 2 2 0 0 1-2-2v-.02" fill="#ba23f6"/><path d="M3114.05-958.02H3112V-962h2.05z" stroke="#ba23f6" stroke-width=".05" fill="#ba23f6"/><path d="M3474-860l-13 7.5v-15z" stroke="#ba23f6" stroke-width="4" fill="#ba23f6"/><path d="M2734-1060h80a6 6 0 0 1 6 6v88a6 6 0 0 0 6 6h63" stroke="#6f7681" stroke-width="4" fill="none"/><path d="M2734.05-1058.03H2732v-3.94h2.05z" stroke="#6f7681" stroke-width=".05" fill="#6f7681"/><path d="M2904-960l-13 7.5v-15z" stroke="#6f7681" stroke-width="4" fill="#6f7681"/><path d="M2734-1060h80a6 6 0 0 0 6-6v-39.7a6 6 0 0 1 6-6h63" stroke="#6f7681" stroke-width="4" fill="none"/><path d="M2734.05-1058.03H2732v-3.94h2.05z" stroke="#6f7681" stroke-width=".05" fill="#6f7681"/><path d="M2904-1111.7l-13 7.5v-15z" stroke="#6f7681" stroke-width="4" fill="#6f7681"/><path d="M2648-1123.98v-.02a2 2 0 0 1 2-2 2 2 0 0 1 2 2 2 2 0 0 1-2 2 2 2 0 0 1-2-2v-.02m0-14.96v-.02a2 2 0 0 1 2-2 2 2 0 0 1 2 2 2 2 0 0 1-2 2 2 2 0 0 1-2-2v-.02m0-14.96v-.02a2 2 0 0 1 2-2 2 2 0 0 1 2 2 2 2 0 0 1-2 2 2 2 0 0 1-2-2v-.02m0-14.96v-.02a2 2 0 0 1 2-2 2 2 0 0 1 2 2 2 2 0 0 1-2 2 2 2 0 0 1-2-2v-.02m0-14.96v-.02a2 2 0 0 1 2-2 2 2 0 0 1 2 2 2 2 0 0 1-2 2 2 2 0 0 1-2-2v-.02m22.04-5.96v-.02a2 2 0 0 1 2-2 2 2 0 0 1 2 2 2 2 0 0 1-2 2 2 2 0 0 1-2-2v-.02m16.03.04v-.02a2 2 0 0 1 2-2 2 2 0 0 1 2 2 2 2 0 0 1-2 2 2 2 0 0 1-2-2v-.02m16.04.04v-.02a2 2 0 0 1 2-2 2 2 0 0 1 2 2 2 2 0 0 1-2 2 2 2 0 0 1-2-2v-.02m16.04.04v-.02a2 2 0 0 1 2-2 2 2 0 0 1 2 2 2 2 0 0 1-2 2 2 2 0 0 1-2-2v-.02m16.04.04v-.02a2 2 0 0 1 2-2 2 2 0 0 1 2 2 2 2 0 0 1-2 2 2 2 0 0 1-2-2v-.02m16.03.04v-.02a2 2 0 0 1 2-2 2 2 0 0 1 2 2 2 2 0 0 1-2 2 2 2 0 0 1-2-2v-.02m16.05.04v-.02a2 2 0 0 1 2-2 2 2 0 0 1 2 2 2 2 0 0 1-2 2 2 2 0 0 1-2-2v-.02m16.04.04v-.02a2 2 0 0 1 2-2 2 2 0 0 1 2 2 2 2 0 0 1-2 2 2 2 0 0 1-2-2v-.02m16.02.04v-.02a2 2 0 0 1 2-2 2 2 0 0 1 2 2 2 2 0 0 1-2 2 2 2 0 0 1-2-2v-.02m16.04.04v-.02a2 2 0 0 1 2-2 2 2 0 0 1 2 2 2 2 0 0 1-2 2 2 2 0 0 1-2-2v-.02m16.03.04v-.02a2 2 0 0 1 2-2 2 2 0 0 1 2 2 2 2 0 0 1-2 2 2 2 0 0 1-2-2v-.02m16.03.04v-.02a2 2 0 0 1 2-2 2 2 0 0 1 2 2 2 2 0 0 1-2 2 2 2 0 0 1-2-2v-.02m16.03.04v-.02a2 2 0 0 1 2-2 2 2 0 0 1 2 2 2 2 0 0 1-2 2 2 2 0 0 1-2-2v-.02m16.04.04v-.02a2 2 0 0 1 2-2 2 2 0 0 1 2 2 2 2 0 0 1-2 2 2 2 0 0 1-2-2v-.02m16.04.04v-.02a2 2 0 0 1 2-2 2 2 0 0 1 2 2 2 2 0 0 1-2 2 2 2 0 0 1-2-2v-.02m16.03.04v-.02a2 2 0 0 1 2-2 2 2 0 0 1 2 2 2 2 0 0 1-2 2 2 2 0 0 1-2-2v-.02m16.04.04v-.02a2 2 0 0 1 2-2 2 2 0 0 1 2 2 2 2 0 0 1-2 2 2 2 0 0 1-2-2v-.02m16.04.04v-.02a2 2 0 0 1 2-2 2 2 0 0 1 2 2 2 2 0 0 1-2 2 2 2 0 0 1-2-2v-.02m16.04.04v-.02a2 2 0 0 1 2-2 2 2 0 0 1 2 2 2 2 0 0 1-2 2 2 2 0 0 1-2-2v-.02m16.03.04v-.02a2 2 0 0 1 2-2 2 2 0 0 1 2 2 2 2 0 0 1-2 2 2 2 0 0 1-2-2v-.02m16.05.04v-.02a2 2 0 0 1 2-2 2 2 0 0 1 2 2 2 2 0 0 1-2 2 2 2 0 0 1-2-2v-.02m16.04.04v-.02a2 2 0 0 1 2-2 2 2 0 0 1 2 2 2 2 0 0 1-2 2 2 2 0 0 1-2-2v-.02m16.02.04v-.02a2 2 0 0 1 2-2 2 2 0 0 1 2 2 2 2 0 0 1-2 2 2 2 0 0 1-2-2v-.02m16.04.04v-.02a2 2 0 0 1 2-2 2 2 0 0 1 2 2 2 2 0 0 1-2 2 2 2 0 0 1-2-2v-.02m16.03.04v-.02a2 2 0 0 1 2-2 2 2 0 0 1 2 2 2 2 0 0 1-2 2 2 2 0 0 1-2-2v-.02m16.03.04v-.02a2 2 0 0 1 2-2 2 2 0 0 1 2 2 2 2 0 0 1-2 2 2 2 0 0 1-2-2v-.02m16.03.04v-.02a2 2 0 0 1 2-2 2 2 0 0 1 2 2 2 2 0 0 1-2 2 2 2 0 0 1-2-2v-.02m16.04.04v-.02a2 2 0 0 1 2-2 2 2 0 0 1 2 2 2 2 0 0 1-2 2 2 2 0 0 1-2-2v-.02m16.04.04v-.02a2 2 0 0 1 2-2 2 2 0 0 1 2 2 2 2 0 0 1-2 2 2 2 0 0 1-2-2v-.02m16.03.04v-.02a2 2 0 0 1 2-2 2 2 0 0 1 2 2 2 2 0 0 1-2 2 2 2 0 0 1-2-2v-.02m16.04.04v-.02a2 2 0 0 1 2-2 2 2 0 0 1 2 2 2 2 0 0 1-2 2 2 2 0 0 1-2-2v-.02m16.04.04v-.02a2 2 0 0 1 2-2 2 2 0 0 1 2 2 2 2 0 0 1-2 2 2 2 0 0 1-2-2v-.02m16.04.04v-.02a2 2 0 0 1 2-2 2 2 0 0 1 2 2 2 2 0 0 1-2 2 2 2 0 0 1-2-2v-.02m16.03.04v-.02a2 2 0 0 1 2-2 2 2 0 0 1 2 2 2 2 0 0 1-2 2 2 2 0 0 1-2-2v-.02m16.05.04v-.02a2 2 0 0 1 2-2 2 2 0 0 1 2 2 2 2 0 0 1-2 2 2 2 0 0 1-2-2v-.02m16.04.04v-.02a2 2 0 0 1 2-2 2 2 0 0 1 2 2 2 2 0 0 1-2 2 2 2 0 0 1-2-2v-.02m16.02.04v-.02a2 2 0 0 1 2-2 2 2 0 0 1 2 2 2 2 0 0 1-2 2 2 2 0 0 1-2-2v-.02m16.04.04v-.02a2 2 0 0 1 2-2 2 2 0 0 1 2 2 2 2 0 0 1-2 2 2 2 0 0 1-2-2v-.02m16.03.04v-.02a2 2 0 0 1 2-2 2 2 0 0 1 2 2 2 2 0 0 1-2 2 2 2 0 0 1-2-2v-.02m16.03.04v-.02a2 2 0 0 1 2-2 2 2 0 0 1 2 2 2 2 0 0 1-2 2 2 2 0 0 1-2-2v-.02m16.03.04v-.02a2 2 0 0 1 2-2 2 2 0 0 1 2 2 2 2 0 0 1-2 2 2 2 0 0 1-2-2v-.02m16.04.04v-.02a2 2 0 0 1 2-2 2 2 0 0 1 2 2 2 2 0 0 1-2 2 2 2 0 0 1-2-2v-.02m16.04.04v-.02a2 2 0 0 1 2-2 2 2 0 0 1 2 2 2 2 0 0 1-2 2 2 2 0 0 1-2-2v-.02m16.03.04v-.02a2 2 0 0 1 2-2 2 2 0 0 1 2 2 2 2 0 0 1-2 2 2 2 0 0 1-2-2v-.02m16.04.04v-.02a2 2 0 0 1 2-2 2 2 0 0 1 2 2 2 2 0 0 1-2 2 2 2 0 0 1-2-2v-.02m16.04.04v-.02a2 2 0 0 1 2-2 2 2 0 0 1 2 2 2 2 0 0 1-2 2 2 2 0 0 1-2-2v-.02m16.04.04v-.02a2 2 0 0 1 2-2 2 2 0 0 1 2 2 2 2 0 0 1-2 2 2 2 0 0 1-2-2v-.02m16.03.04v-.02a2 2 0 0 1 2-2 2 2 0 0 1 2 2 2 2 0 0 1-2 2 2 2 0 0 1-2-2v-.02m16.05.04v-.02a2 2 0 0 1 2-2 2 2 0 0 1 2 2 2 2 0 0 1-2 2 2 2 0 0 1-2-2v-.02m16.04.04v-.02a2 2 0 0 1 2-2 2 2 0 0 1 2 2 2 2 0 0 1-2 2 2 2 0 0 1-2-2v-.02m16.02.04v-.02a2 2 0 0 1 2-2 2 2 0 0 1 2 2 2 2 0 0 1-2 2 2 2 0 0 1-2-2v-.02m16.04.04v-.02a2 2 0 0 1 2-2 2 2 0 0 1 2 2 2 2 0 0 1-2 2 2 2 0 0 1-2-2v-.02m16.03.04v-.02a2 2 0 0 1 2-2 2 2 0 0 1 2 2 2 2 0 0 1-2 2 2 2 0 0 1-2-2v-.02m16.03.04v-.02a2 2 0 0 1 2-2 2 2 0 0 1 2 2 2 2 0 0 1-2 2 2 2 0 0 1-2-2v-.02m16.03.04v-.02a2 2 0 0 1 2-2 2 2 0 0 1 2 2 2 2 0 0 1-2 2 2 2 0 0 1-2-2v-.02m16.04.04v-.02a2 2 0 0 1 2-2 2 2 0 0 1 2 2 2 2 0 0 1-2 2 2 2 0 0 1-2-2v-.02m6 23.2a2 2 0 0 1 2-2 2 2 0 0 1 2 2 2 2 0 0 1-2 2 2 2 0 0 1-2-2v-.03m0 17.2a2 2 0 0 1 2-2 2 2 0 0 1 2 2 2 2 0 0 1-2 2 2 2 0 0 1-2-2v-.03m0 17.2a2 2 0 0 1 2-2 2 2 0 0 1 2 2 2 2 0 0 1-2 2 2 2 0 0 1-2-2v-.04m0 17.2a2 2 0 0 1 2-2 2 2 0 0 1 2 2 2 2 0 0 1-2 2 2 2 0 0 1-2-2v-.03m0 17.2a2 2 0 0 1 2-2 2 2 0 0 1 2 2 2 2 0 0 1-2 2 2 2 0 0 1-2-2v-.03m0 17.2a2 2 0 0 1 2-2 2 2 0 0 1 2 2 2 2 0 0 1-2 2 2 2 0 0 1-2-2v-.03" fill="#fcce14"/><path d="M2651.97-1122h-3.94v-2.05h3.94z" stroke="#fcce14" stroke-width=".05" fill="#fcce14"/><path d="M3560-1066l-7.5-13h15z" stroke="#fcce14" stroke-width="4" fill="#fcce14"/><path d="M2434-860h60a6 6 0 0 0 6-6v-188a6 6 0 0 1 6-6h43" stroke="#008a0e" stroke-width="4" fill="none"/><path d="M2434.05-858.02H2432V-862h2.05z" stroke="#008a0e" stroke-width=".05" fill="#008a0e"/><path d="M2564-1060l-13 7.5v-15z" stroke="#008a0e" stroke-width="4" fill="#008a0e"/><path d="M2434-860h60a6 6 0 0 1 6 6v188a6 6 0 0 0 6 6h43" stroke="#008a0e" stroke-width="4" fill="none"/><path d="M2434.05-858.02H2432V-862h2.05z" stroke="#008a0e" stroke-width=".05" fill="#008a0e"/><path d="M2564-660l-13 7.5v-15z" stroke="#008a0e" stroke-width="4" fill="#008a0e"/><path d="M2650-796v32a6 6 0 0 1-6 6h-288a6 6 0 0 1-6-6v-15" stroke="#008a0e" stroke-width="4" fill="none"/><path d="M2651.97-795.95h-3.94V-798h3.94z" stroke="#008a0e" stroke-width=".05" fill="#008a0e"/><path d="M2350-794l7.5 13h-15z" stroke="#008a0e" stroke-width="4" fill="#008a0e"/><path d="M2434-860h60a6 6 0 0 1 6 6v364.6a6 6 0 0 0 6 6h43" stroke="#008a0e" stroke-width="4" fill="none"/><path d="M2434.05-858.02H2432V-862h2.05z" stroke="#008a0e" stroke-width=".05" fill="#008a0e"/><path d="M2564-483.4l-13 7.5v-15z" stroke="#008a0e" stroke-width="4" fill="#008a0e"/><path d="M2650-996v55" stroke="#6f7681" stroke-width="4" fill="none"/><path d="M2651.97-995.95h-3.94V-998h3.94z" stroke="#6f7681" stroke-width=".05" fill="#6f7681"/><path d="M2650-926l-7.5-13h15z" stroke="#6f7681" stroke-width="4" fill="#6f7681"/><path d="M1940-914a6 6 0 0 1 6-6h168a6 6 0 0 1 6 6v108a6 6 0 0 1-6 6h-168a6 6 0 0 1-6-6z" stroke="#fc9432" stroke-width="4" fill-opacity="0"/><use xlink:href="#p" transform="matrix(1,0,0,1,1952,-908) translate(1.8932291666666572 59.388888888888886)"/><path d="M2124-860h125" stroke="#fc9432" stroke-width="4" fill="none"/><path d="M2124.05-858.02H2122V-862h2.05z" stroke="#fc9432" stroke-width=".05" fill="#fc9432"/><path d="M2264-860l-13 7.5v-15z" stroke="#fc9432" stroke-width="4" fill="#fc9432"/><defs><path fill="#6f7681" d="M783 20c-382 0-661-292-661-764 0-473 279-766 661-766 302 0 548 182 601 489h-190c-42-204-217-313-411-313-268 0-476 208-476 590 0 381 209 588 476 588 195 0 369-110 411-313h190c-52 303-296 489-601 489" id="q"/><path fill="#6f7681" d="M338-1490V0H158v-1490h180" id="r"/><path fill="#6f7681" d="M158 0v-1118h180V0H158zm91-1301c-68 0-125-53-125-119s57-119 125-119c69 0 126 53 126 119s-57 119-126 119" id="s"/><path fill="#6f7681" d="M628 24c-324 0-524-230-524-574 0-343 198-582 503-582 237 0 487 146 487 559v75H286c9 234 145 362 343 362 132 0 231-58 273-172l174 48C1024-91 857 24 628 24zM287-650h624c-17-190-120-322-304-322-192 0-309 151-320 322" id="t"/><path fill="#6f7681" d="M338-670V0H158v-1118h173l1 207c72-158 192-221 342-221 226 0 378 139 378 422V0H872v-695c0-172-96-275-252-275-161 0-282 109-282 300" id="u"/><path fill="#6f7681" d="M598-1118v154H368v674c0 100 37 144 132 144 23 0 62-6 92-12L629-6c-37 13-88 20-134 20-193 0-307-107-307-290v-688H20v-154h168v-266h180v266h230" id="v"/><g id="a"><use transform="matrix(0.015190972222222222,0,0,0.015190972222222222,0,0)" xlink:href="#q"/><use transform="matrix(0.015190972222222222,0,0,0.015190972222222222,22.725694444444443,0)" xlink:href="#r"/><use transform="matrix(0.015190972222222222,0,0,0.015190972222222222,30.260416666666664,0)" xlink:href="#s"/><use transform="matrix(0.015190972222222222,0,0,0.015190972222222222,37.795138888888886,0)" xlink:href="#t"/><use transform="matrix(0.015190972222222222,0,0,0.015190972222222222,55.933159722222214,0)" xlink:href="#u"/><use transform="matrix(0.015190972222222222,0,0,0.015190972222222222,74.3142361111111,0)" xlink:href="#v"/></g><path d="M52 0l541-1490h220L1361 0h-200l-149-416H398L254 0H52zm404-582h497c-103-290-145-390-251-756-108 377-145 460-246 756" id="w"/><path d="M458 0L52-1490h194c108 439 233 855 324 1313 92-459 221-873 331-1313h216c110 438 234 854 330 1307 92-455 216-869 323-1307h196L1558 0h-221l-256-944c-26-95-50-200-73-331-22 122-44 223-73 331L680 0H458" id="x"/><path d="M657 26c-323 0-524-166-541-416h195c15 169 171 246 346 246 202 0 356-106 356-265 5-203-294-238-475-293-239-73-380-191-380-389 0-252 224-419 512-419 294 0 499 171 508 396H992c-17-145-151-228-328-228-193 0-321 102-321 242 0 156 175 211 284 241l149 41c160 44 422 134 422 412 0 244-197 432-541 432" id="y"/><g id="b"><use transform="matrix(0.01953125,0,0,0.01953125,0,0)" xlink:href="#w"/><use transform="matrix(0.01953125,0,0,0.01953125,25.33203125,0)" xlink:href="#x"/><use transform="matrix(0.01953125,0,0,0.01953125,64.74609375,0)" xlink:href="#y"/></g><path d="M180 0v-1490h908v168H370v486h669v168H370v500h727V0H180" id="z"/><path d="M783 20c-382 0-661-292-661-764 0-473 279-766 661-766 302 0 548 182 601 489h-190c-42-204-217-313-411-313-268 0-476 208-476 590 0 381 209 588 476 588 195 0 369-110 411-313h190c-52 303-296 489-601 489" id="A"/><path d="M154 0v-137l495-537c165-179 249-281 249-418 0-156-121-253-280-253-170 0-278 110-278 278H158c0-264 200-443 465-443 266 0 455 183 455 416 0 161-73 288-336 568L416-179v12h687V0H154" id="B"/><g id="c"><use transform="matrix(0.01953125,0,0,0.01953125,0,0)" xlink:href="#z"/><use transform="matrix(0.01953125,0,0,0.01953125,24.04296875,0)" xlink:href="#A"/><use transform="matrix(0.01953125,0,0,0.01953125,53.26171875,0)" xlink:href="#B"/></g><path d="M645 0H180v-1490h484c435 0 692 280 692 742 0 466-257 748-711 748zM370-168h263c363 0 539-218 539-580 0-358-176-574-521-574H370v1154" id="C"/><path d="M613 24c-304 0-509-231-509-576 0-350 205-580 509-580 305 0 511 230 511 580 0 345-206 576-511 576zm0-161c226 0 329-195 329-415 0-222-103-419-329-419-223 0-326 196-326 419 0 220 103 415 326 415" id="D"/><path d="M613 24c-304 0-509-231-509-576 0-350 205-580 509-580 216 0 392 114 453 309l-173 49c-33-115-133-197-280-197-223 0-326 196-326 419 0 220 103 415 326 415 150 0 252-85 285-206l172 49C1010-95 832 24 613 24" id="E"/><path d="M158 0v-1490h180v865h22l478-493h223L593-638 1096 0H865L456-523 338-412V0H158" id="F"/><path d="M628 24c-324 0-524-230-524-574 0-343 198-582 503-582 237 0 487 146 487 559v75H286c9 234 145 362 343 362 132 0 231-58 273-172l174 48C1024-91 857 24 628 24zM287-650h624c-17-190-120-322-304-322-192 0-309 151-320 322" id="G"/><path d="M158 0v-1118h174v172h12c41-113 157-188 290-188 26 0 70 2 91 3v181c-11-2-60-10-108-10-161 0-279 109-279 260V0H158" id="H"/><g id="d"><use transform="matrix(0.01953125,0,0,0.01953125,0,0)" xlink:href="#C"/><use transform="matrix(0.01953125,0,0,0.01953125,28.8671875,0)" xlink:href="#D"/><use transform="matrix(0.01953125,0,0,0.01953125,52.8515625,0)" xlink:href="#E"/><use transform="matrix(0.01953125,0,0,0.01953125,75.703125,0)" xlink:href="#F"/><use transform="matrix(0.01953125,0,0,0.01953125,96.7578125,0)" xlink:href="#G"/><use transform="matrix(0.01953125,0,0,0.01953125,120.078125,0)" xlink:href="#H"/></g><path d="M158 0v-1118h175l1 205c55-151 181-225 313-225 147 0 245 90 285 228 53-141 190-228 352-228 194 0 352 125 352 384V0h-181v-749c0-161-105-225-225-225-151 0-243 103-243 244V0H807v-767c0-124-93-207-219-207-131 0-250 92-250 270V0H158" id="I"/><path d="M158 418v-1536h174v179h20c37-59 106-193 324-193 279 0 474 222 474 576 0 356-194 580-473 580-213 0-288-135-325-197h-14v591H158zm492-555c209 0 317-186 317-421 0-232-105-413-317-413-206 0-314 166-314 413 0 249 111 421 314 421" id="J"/><path d="M538 24C308 24 148-78 108-271l171-41c32 123 123 178 257 178 156 0 256-77 256-169 0-77-54-128-164-154l-186-44c-203-48-300-148-300-305 0-192 176-326 414-326 230 0 351 112 402 269l-163 42c-31-80-94-158-238-158-133 0-233 69-233 162 0 83 57 129 188 160l169 40c203 48 298 149 298 302 0 196-179 339-441 339" id="K"/><g id="e"><use transform="matrix(0.01953125,0,0,0.01953125,0,0)" xlink:href="#E"/><use transform="matrix(0.01953125,0,0,0.01953125,22.8515625,0)" xlink:href="#D"/><use transform="matrix(0.01953125,0,0,0.01953125,46.8359375,0)" xlink:href="#I"/><use transform="matrix(0.01953125,0,0,0.01953125,81.875,0)" xlink:href="#J"/><use transform="matrix(0.01953125,0,0,0.01953125,106.3671875,0)" xlink:href="#D"/><use transform="matrix(0.01953125,0,0,0.01953125,130.3515625,0)" xlink:href="#K"/><use transform="matrix(0.01953125,0,0,0.01953125,151.46484375,0)" xlink:href="#G"/></g><path fill="#6f7681" d="M180 0v-1490h528c311 0 458 177 458 395 0 191-114 278-244 313v14c139 9 302 137 302 371 0 225-148 397-499 397H180zm190-168h350c232 0 321-102 321-231 0-149-120-277-311-277H370v508zm0-668h328c160 0 286-101 286-255 0-129-87-231-280-231H370v486" id="L"/><path fill="#6f7681" d="M471 26C259 26 90-98 90-318c0-256 228-303 435-329 202-27 287-16 287-108 0-139-79-219-234-219-161 0-248 86-283 164l-173-57c86-203 278-265 451-265 150 0 419 46 419 395V0H815v-152h-12C765-73 660 26 471 26zm31-159c199 0 310-134 310-271v-155c-30 35-226 55-295 64-131 17-246 59-246 186 0 116 97 176 231 176" id="M"/><path fill="#6f7681" d="M613 24c-304 0-509-231-509-576 0-350 205-580 509-580 216 0 392 114 453 309l-173 49c-33-115-133-197-280-197-223 0-326 196-326 419 0 220 103 415 326 415 150 0 252-85 285-206l172 49C1010-95 832 24 613 24" id="N"/><path fill="#6f7681" d="M158 0v-1490h180v865h22l478-493h223L593-638 1096 0H865L456-523 338-412V0H158" id="O"/><path fill="#6f7681" d="M577 24c-279 0-473-224-473-580 0-354 195-576 474-576 218 0 287 134 324 193h14v-551h180V0H922v-173h-20C865-111 790 24 577 24zm27-161c203 0 314-172 314-421 0-247-108-413-314-413-212 0-317 181-317 413 0 235 108 421 317 421" id="P"/><g id="f"><use transform="matrix(0.015190972222222222,0,0,0.015190972222222222,0,0)" xlink:href="#L"/><use transform="matrix(0.015190972222222222,0,0,0.015190972222222222,20.35590277777778,0)" xlink:href="#M"/><use transform="matrix(0.015190972222222222,0,0,0.015190972222222222,37.82552083333333,0)" xlink:href="#N"/><use transform="matrix(0.015190972222222222,0,0,0.015190972222222222,55.59895833333333,0)" xlink:href="#O"/><use transform="matrix(0.015190972222222222,0,0,0.015190972222222222,71.97482638888889,0)" xlink:href="#t"/><use transform="matrix(0.015190972222222222,0,0,0.015190972222222222,90.11284722222221,0)" xlink:href="#u"/><use transform="matrix(0.015190972222222222,0,0,0.015190972222222222,108.4939236111111,0)" xlink:href="#P"/></g><path fill="#6f7681" d="M180 0v-1490h224l606 953c40 63 108 177 176 312-27-437-7-821-13-1265h190V0h-226C860-448 622-778 356-1262c27 476 11 792 15 1262H180" id="Q"/><path fill="#6f7681" d="M611 442c-248 0-391-105-460-228l146-94c47 65 117 165 314 165 178 0 307-82 307-266v-224h-17C863-141 792-18 576-18c-268 0-472-195-472-546 0-346 197-568 476-568 216 0 288 133 326 193h17v-179h175V29c0 289-215 413-487 413zm-5-620c203 0 314-146 314-390 0-237-108-403-314-403-213 0-319 180-319 403 0 230 109 390 319 390" id="R"/><path fill="#6f7681" d="M65 0l393-574-370-544h210c88 136 192 297 267 435 67-142 176-302 264-435h206L661-564 1053 0H844c-94-144-206-310-287-458C484-308 366-142 273 0H65" id="S"/><g id="g"><use transform="matrix(0.015190972222222222,0,0,0.015190972222222222,0,0)" xlink:href="#Q"/><use transform="matrix(0.015190972222222222,0,0,0.015190972222222222,23.43967013888889,0)" xlink:href="#R"/><use transform="matrix(0.015190972222222222,0,0,0.015190972222222222,42.51953125,0)" xlink:href="#s"/><use transform="matrix(0.015190972222222222,0,0,0.015190972222222222,50.05425347222222,0)" xlink:href="#u"/><use transform="matrix(0.015190972222222222,0,0,0.015190972222222222,68.43532986111111,0)" xlink:href="#S"/></g><path fill="#6f7681" d="M645 0H180v-1490h484c435 0 692 280 692 742 0 466-257 748-711 748zM370-168h263c363 0 539-218 539-580 0-358-176-574-521-574H370v1154" id="T"/><path fill="#6f7681" d="M677 24c-213 0-288-135-325-197h-20V0H158v-1490h180v551h14c37-59 106-193 324-193 279 0 474 222 474 576 0 356-194 580-473 580zm-27-161c209 0 317-186 317-421 0-232-105-413-317-413-206 0-314 166-314 413 0 249 111 421 314 421" id="U"/><path fill="#6f7681" d="M538 24C308 24 148-78 108-271l171-41c32 123 123 178 257 178 156 0 256-77 256-169 0-77-54-128-164-154l-186-44c-203-48-300-148-300-305 0-192 176-326 414-326 230 0 351 112 402 269l-163 42c-31-80-94-158-238-158-133 0-233 69-233 162 0 83 57 129 188 160l169 40c203 48 298 149 298 302 0 196-179 339-441 339" id="V"/><g id="h"><use transform="matrix(0.015190972222222222,0,0,0.015190972222222222,0,0)" xlink:href="#T"/><use transform="matrix(0.015190972222222222,0,0,0.015190972222222222,22.452256944444443,0)" xlink:href="#M"/><use transform="matrix(0.015190972222222222,0,0,0.015190972222222222,39.921875,0)" xlink:href="#v"/><use transform="matrix(0.015190972222222222,0,0,0.015190972222222222,50.251736111111114,0)" xlink:href="#M"/><use transform="matrix(0.015190972222222222,0,0,0.015190972222222222,67.72135416666667,0)" xlink:href="#U"/><use transform="matrix(0.015190972222222222,0,0,0.015190972222222222,87.07465277777779,0)" xlink:href="#M"/><use transform="matrix(0.015190972222222222,0,0,0.015190972222222222,104.54427083333334,0)" xlink:href="#V"/><use transform="matrix(0.015190972222222222,0,0,0.015190972222222222,120.96571180555557,0)" xlink:href="#t"/></g><path fill="#6f7681" d="M180 0v-1490h901v168H370v510h643v168H370V0H180" id="W"/><path fill="#6f7681" d="M158 0v-1118h174v172h12c41-113 157-188 290-188 26 0 70 2 91 3v181c-11-2-60-10-108-10-161 0-279 109-279 260V0H158" id="X"/><path fill="#6f7681" d="M613 24c-304 0-509-231-509-576 0-350 205-580 509-580 305 0 511 230 511 580 0 345-206 576-511 576zm0-161c226 0 329-195 329-415 0-222-103-419-329-419-223 0-326 196-326 419 0 220 103 415 326 415" id="Y"/><g id="i"><use transform="matrix(0.015190972222222222,0,0,0.015190972222222222,0,0)" xlink:href="#W"/><use transform="matrix(0.015190972222222222,0,0,0.015190972222222222,17.454427083333336,0)" xlink:href="#X"/><use transform="matrix(0.015190972222222222,0,0,0.015190972222222222,28.650173611111114,0)" xlink:href="#Y"/><use transform="matrix(0.015190972222222222,0,0,0.015190972222222222,47.3046875,0)" xlink:href="#u"/><use transform="matrix(0.015190972222222222,0,0,0.015190972222222222,65.68576388888889,0)" xlink:href="#v"/><use transform="matrix(0.015190972222222222,0,0,0.015190972222222222,75.55989583333333,0)" xlink:href="#t"/><use transform="matrix(0.015190972222222222,0,0,0.015190972222222222,93.69791666666666,0)" xlink:href="#u"/><use transform="matrix(0.015190972222222222,0,0,0.015190972222222222,112.07899305555554,0)" xlink:href="#P"/></g><path fill="#6f7681" d="M657 26c-323 0-524-166-541-416h195c15 169 171 246 346 246 202 0 356-106 356-265 5-203-294-238-475-293-239-73-380-191-380-389 0-252 224-419 512-419 294 0 499 171 508 396H992c-17-145-151-228-328-228-193 0-321 102-321 242 0 156 175 211 284 241l149 41c160 44 422 134 422 412 0 244-197 432-541 432" id="Z"/><path fill="#6f7681" d="M635 20c-292 0-500-160-510-396h192c11 142 145 229 315 229 187 0 323-105 323-260 0-161-125-274-346-274H488v-165h121c174 0 294-100 294-254 0-148-104-245-266-245-152 0-291 85-297 230H157c8-234 222-395 484-395 278 0 448 188 448 400 0 168-95 291-247 336v12c190 31 301 169 301 357 0 244-216 425-508 425" id="aa"/><g id="j"><use transform="matrix(0.015190972222222222,0,0,0.015190972222222222,0,0)" xlink:href="#Z"/><use transform="matrix(0.015190972222222222,0,0,0.015190972222222222,19.9609375,0)" xlink:href="#aa"/></g><g id="k"><use transform="matrix(0.015190972222222222,0,0,0.015190972222222222,0,0)" xlink:href="#T"/><use transform="matrix(0.015190972222222222,0,0,0.015190972222222222,22.452256944444443,0)" xlink:href="#Y"/><use transform="matrix(0.015190972222222222,0,0,0.015190972222222222,41.10677083333333,0)" xlink:href="#N"/><use transform="matrix(0.015190972222222222,0,0,0.015190972222222222,58.88020833333333,0)" xlink:href="#V"/></g><path fill="#6f7681" d="M180 0v-1490h908v168H370v486h669v168H370v500h727V0H180" id="ab"/><path fill="#6f7681" d="M158 0v-1118h175l1 205c55-151 181-225 313-225 147 0 245 90 285 228 53-141 190-228 352-228 194 0 352 125 352 384V0h-181v-749c0-161-105-225-225-225-151 0-243 103-243 244V0H807v-767c0-124-93-207-219-207-131 0-250 92-250 270V0H158" id="ac"/><g id="l"><use transform="matrix(0.015190972222222222,0,0,0.015190972222222222,0,0)" xlink:href="#ab"/><use transform="matrix(0.015190972222222222,0,0,0.015190972222222222,18.700086805555554,0)" xlink:href="#ac"/><use transform="matrix(0.015190972222222222,0,0,0.015190972222222222,45.95269097222222,0)" xlink:href="#M"/><use transform="matrix(0.015190972222222222,0,0,0.015190972222222222,63.42230902777778,0)" xlink:href="#s"/><use transform="matrix(0.015190972222222222,0,0,0.015190972222222222,70.95703125,0)" xlink:href="#r"/></g><g id="m"><use transform="matrix(0.015190972222222222,0,0,0.015190972222222222,0,0)" xlink:href="#U"/><use transform="matrix(0.015190972222222222,0,0,0.015190972222222222,19.049479166666668,0)" xlink:href="#X"/><use transform="matrix(0.015190972222222222,0,0,0.015190972222222222,31.247829861111118,0)" xlink:href="#s"/><use transform="matrix(0.015190972222222222,0,0,0.015190972222222222,38.782552083333336,0)" xlink:href="#R"/><use transform="matrix(0.015190972222222222,0,0,0.015190972222222222,57.86241319444444,0)" xlink:href="#t"/></g><path fill="#6f7681" d="M789 20c-398 0-667-293-667-764 0-473 273-766 655-766 315 0 558 198 612 487h-196c-61-191-204-311-415-311-262 0-471 207-471 590 0 380 208 588 482 588 249 0 420-165 425-427H828v-166h572v163c0 370-256 606-611 606" id="ad"/><g id="n"><use transform="matrix(0.015190972222222222,0,0,0.015190972222222222,0,0)" xlink:href="#ad"/><use transform="matrix(0.015190972222222222,0,0,0.015190972222222222,23.211805555555554,0)" xlink:href="#Y"/><use transform="matrix(0.015190972222222222,0,0,0.015190972222222222,41.86631944444444,0)" xlink:href="#Y"/><use transform="matrix(0.015190972222222222,0,0,0.015190972222222222,60.52083333333333,0)" xlink:href="#R"/><use transform="matrix(0.015190972222222222,0,0,0.015190972222222222,79.60069444444444,0)" xlink:href="#r"/><use transform="matrix(0.015190972222222222,0,0,0.015190972222222222,87.13541666666667,0)" xlink:href="#t"/></g><path fill="#6f7681" d="M180 0v-1490h510c348 0 508 209 508 474 0 266-160 477-507 477H370V0H180zm190-706h312c236 0 327-133 327-310 0-176-91-307-329-307H370v617" id="ae"/><g id="o"><use transform="matrix(0.015190972222222222,0,0,0.015190972222222222,0,0)" xlink:href="#ae"/><use transform="matrix(0.015190972222222222,0,0,0.015190972222222222,19.869791666666668,0)" xlink:href="#X"/><use transform="matrix(0.015190972222222222,0,0,0.015190972222222222,31.065538194444443,0)" xlink:href="#Y"/><use transform="matrix(0.015190972222222222,0,0,0.015190972222222222,49.72005208333333,0)" xlink:href="#v"/><use transform="matrix(0.015190972222222222,0,0,0.015190972222222222,59.59418402777777,0)" xlink:href="#Y"/><use transform="matrix(0.015190972222222222,0,0,0.015190972222222222,78.24869791666666,0)" xlink:href="#u"/></g><path fill="#6f7681" d="M537 14c-226 0-379-139-379-422v-710h180v695c0 172 97 275 253 275 160 0 281-109 281-300v-670h181V0H879v-209C806-46 684 14 537 14" id="af"/><path fill="#6f7681" d="M678-1118v154H420V0H240v-964H20v-154h220v-149c0-194 155-293 318-293 85 0 141 18 168 30l-50 154c-19-6-47-17-97-17-111 0-159 58-159 166v109h258" id="ag"/><g id="p"><use transform="matrix(0.015190972222222222,0,0,0.015190972222222222,0,0)" xlink:href="#q"/><use transform="matrix(0.015190972222222222,0,0,0.015190972222222222,22.725694444444443,0)" xlink:href="#r"/><use transform="matrix(0.015190972222222222,0,0,0.015190972222222222,30.260416666666664,0)" xlink:href="#Y"/><use transform="matrix(0.015190972222222222,0,0,0.015190972222222222,48.91493055555556,0)" xlink:href="#af"/><use transform="matrix(0.015190972222222222,0,0,0.015190972222222222,67.31119791666667,0)" xlink:href="#P"/><use transform="matrix(0.015190972222222222,0,0,0.015190972222222222,86.36067708333334,0)" xlink:href="#ag"/><use transform="matrix(0.015190972222222222,0,0,0.015190972222222222,97.87543402777779,0)" xlink:href="#r"/><use transform="matrix(0.015190972222222222,0,0,0.015190972222222222,105.41015625000001,0)" xlink:href="#M"/><use transform="matrix(0.015190972222222222,0,0,0.015190972222222222,122.87977430555557,0)" xlink:href="#X"/><use transform="matrix(0.015190972222222222,0,0,0.015190972222222222,134.07552083333334,0)" xlink:href="#t"/></g></defs></g></svg>