<svg width="93" height="93" viewBox="0 0 93 93" fill="none" xmlns="http://www.w3.org/2000/svg">
<g clip-path="url(#clip0_417_1243)">
<path d="M93 46.5C93 20.8188 72.1812 0 46.5 0C20.8188 0 0 20.8188 0 46.5C0 72.1812 20.8188 93 46.5 93C72.1812 93 93 72.1812 93 46.5Z" fill="#D9D9D9"/>
<path d="M18.8008 70.6183C18.8008 59.9209 27.7379 51.249 46.0008 51.249C64.2636 51.249 73.2008 59.9209 73.2008 70.6183C73.2008 72.3202 71.9591 73.6998 70.4274 73.6998H21.5741C20.0424 73.6998 18.8008 72.3202 18.8008 70.6183Z" stroke="black" stroke-width="5.66667"/>
<path d="M56.2008 29.4998C56.2008 35.1331 51.6341 39.6998 46.0008 39.6998C40.3675 39.6998 35.8008 35.1331 35.8008 29.4998C35.8008 23.8665 40.3675 19.2998 46.0008 19.2998C51.6341 19.2998 56.2008 23.8665 56.2008 29.4998Z" stroke="black" stroke-width="5.66667"/>
</g>
<defs>
<clipPath id="clip0_417_1243">
<rect width="93" height="93" fill="white"/>
</clipPath>
</defs>
</svg>
